<?xml version="1.0" standalone="no"?>
<!DOCTYPE svg PUBLIC "-//W3C//DTD SVG 1.1//EN" "http://www.w3.org/Graphics/SVG/1.1/DTD/svg11.dtd" >
<svg xmlns="http://www.w3.org/2000/svg" xmlns:xlink="http://www.w3.org/1999/xlink" version="1.1">
<metadata></metadata>
<defs>
<font id="violet_sansregular" horiz-adv-x="1146" >
<font-face units-per-em="2048" ascent="1659" descent="-389" />
<missing-glyph horiz-adv-x="512" />
<glyph horiz-adv-x="0" />
<glyph horiz-adv-x="682" />
<glyph unicode=" "  horiz-adv-x="512" />
<glyph unicode="&#x09;" horiz-adv-x="512" />
<glyph unicode="&#xa0;" horiz-adv-x="512" />
<glyph unicode="!" horiz-adv-x="634" d="M184 121q0 55 39 95t94 40t94.5 -40t39.5 -95t-39 -93t-95 -38q-55 0 -94 38t-39 93zM205 1454h225l-20 -932h-185z" />
<glyph unicode="&#x22;" horiz-adv-x="776" d="M82 1362q0 51 36 88t87 37t87 -37t36 -88q0 -12 -2 -19q-6 -57 -50 -213q-31 -119 -34 -147h-74q-4 29 -35 147q-43 156 -49 213q-2 6 -2 19zM449 1362q0 51 35.5 88t86.5 37t87 -37t36 -88q0 -13 -2 -19q-6 -57 -49 -213q-31 -119 -35 -147h-73q-4 29 -35 147 q-43 156 -49 213q-2 6 -2 19z" />
<glyph unicode="#" horiz-adv-x="1521" d="M102 422l37 151h244l74 308h-244l37 151h244l102 422h184l-102 -422h313l103 422h184l-102 -422h243l-37 -151h-243l-74 -308h244l-37 -151h-244l-102 -422h-185l103 422h-314l-102 -422h-184l102 422h-244zM567 573h314l73 308h-313z" />
<glyph unicode="$" horiz-adv-x="1433" d="M102 430h205q25 -119 113 -188.5t233 -85.5v528q-156 31 -258 70t-166.5 114.5t-64.5 200.5q0 188 130 299t359 119v143h164v-151q193 -31 298.5 -144.5t129.5 -294.5h-184q-39 211 -244 258v-458q164 -31 269.5 -74t169 -129t63.5 -229q0 -187 -121 -303.5t-381 -135.5 v-143h-164v143q-227 18 -374.5 134t-176.5 327zM348 1075q2 -94 78 -137t227 -70v443q-139 -8 -222 -70.5t-83 -165.5zM817 152q156 12 237 78.5t81 172.5t-75 158.5t-243 89.5v-499z" />
<glyph unicode="%" horiz-adv-x="1812" d="M113 1124q0 98 49 181.5t132 132.5t181 49t181 -49t131.5 -132t48.5 -182q0 -98 -48.5 -181t-131.5 -131t-181 -48t-181 48t-132 131t-49 181zM291 1126q0 -76 53 -130t133 -54q76 0 129 54.5t53 129.5q0 76 -53 130.5t-129 54.5q-80 0 -133 -53.5t-53 -131.5zM332 0 l946 1454h207l-946 -1454h-207zM997 328q0 98 49.5 181t132.5 132t181 49t180 -49t131 -133t49 -180q0 -98 -48 -181.5t-131 -131.5t-181 -48t-181 48t-132.5 131t-49.5 182zM1176 330q0 -76 53 -130.5t133 -54.5q76 0 129 54.5t53 130.5t-53 130t-129 54q-80 0 -133 -53 t-53 -131z" />
<glyph unicode="&#x26;" horiz-adv-x="1765" d="M143 295v94q0 98 50.5 171t128 122t192.5 100q-88 72 -137 152t-49 201v41q0 154 89 232.5t240 78.5h121q152 0 240 -80t88 -231v-41q0 -127 -70.5 -220.5t-193.5 -166.5l366 -297v266h176v-381v-27l381 -309h-264l-178 141q-55 -80 -149.5 -127t-202.5 -47h-406 q-113 0 -209 38t-154.5 113t-58.5 177zM328 348q0 -96 68.5 -150.5t228.5 -54.5h286q197 -2 265 115l-502 399q-131 -63 -193.5 -98t-107.5 -83t-45 -105v-23zM512 1135q0 -84 45 -139.5t139 -129.5q109 55 167.5 118t58.5 151v41q0 135 -164 135h-80q-166 0 -166 -135v-41z " />
<glyph unicode="'" horiz-adv-x="409" d="M82 1362q0 51 36 88t87 37t87 -37t36 -88q0 -13 -2 -19q-6 -57 -50 -213q-31 -119 -34 -147h-74q-4 29 -35 147q-43 156 -49 213q-2 6 -2 19z" />
<glyph unicode="(" horiz-adv-x="604" d="M113 618q0 302 113.5 549.5t275.5 401.5l102 -82q-129 -158 -218 -386.5t-89 -482.5q0 -276 89 -502.5t218 -367.5l-102 -82q-162 152 -275.5 399.5t-113.5 552.5z" />
<glyph unicode=")" horiz-adv-x="604" d="M0 -252q129 141 218 367.5t89 502.5q0 254 -89 482.5t-218 386.5l102 82q162 -154 276 -401.5t114 -549.5q0 -305 -114 -552.5t-276 -399.5z" />
<glyph unicode="*" horiz-adv-x="894" d="M72 1190q0 39 26.5 64.5t63.5 25.5q10 0 26 -4l11 -4q47 -20 159 -94l50 -29l-17 74q-4 20 -17.5 77.5t-15.5 81.5q-2 4 -2 15q0 37 27 63.5t63 26.5q35 0 63 -26.5t28 -63.5v-13q-4 -35 -54 -235q49 29 82 45q94 57 125 70l17 6q16 4 24 4q29 0 53.5 -17.5t34.5 -46.5 q4 -16 4 -24q0 -29 -18.5 -53.5t-44.5 -32.5q-4 0 -4 -2h-6q-31 -8 -164 -17q-33 0 -78 -4l70 -59q86 -74 106 -96q8 -8 10 -13q16 -23 17 -51q0 -47 -37 -76q-23 -16 -51 -16q-47 0 -74 37v2l-6 6q-20 37 -68 154l-29 67q-12 -27 -36 -88q-45 -106 -62 -131l-4 -8l-2 -2 q-12 -18 -31.5 -27.5t-40.5 -9.5q-27 0 -53 16q-37 29 -37 76q0 29 17 51q4 6 10 11q14 14 50 45.5t58 52.5l70 59q-190 16 -229 23q-6 0 -23 4q-29 8 -45 32.5t-16 53.5z" />
<glyph unicode="+" horiz-adv-x="1208" d="M113 614v185h399v397h184v-397h400v-185h-400v-401h-184v401h-399z" />
<glyph unicode="," horiz-adv-x="520" d="M143 0v233h234v-315l-94 -166h-140l95 185v63h-95z" />
<glyph unicode="-" horiz-adv-x="901" d="M92 518v176h717v-176h-717z" />
<glyph unicode="." horiz-adv-x="552" d="M143 121q0 55 39 95t94 40t94.5 -40t39.5 -95t-39 -93t-95 -38q-55 0 -94 38t-39 93z" />
<glyph unicode="/" horiz-adv-x="761" d="M0 0l578 1454h184l-578 -1454h-184z" />
<glyph unicode="0" horiz-adv-x="1368" d="M70 727q0 258 86 428t226 251t302 81q166 0 305 -81t224 -252t85 -427q0 -399 -172 -579.5t-442 -180.5q-162 0 -302 81t-226 252t-86 427zM254 727q0 -272 106 -420l512 963q-82 41 -188 41q-219 0 -324.5 -159t-105.5 -425zM494 195q84 -39 190 -39q221 0 325.5 153.5 t104.5 417.5q0 279 -108 428z" />
<glyph unicode="1" horiz-adv-x="841" d="M184 1051v176h92q88 0 142.5 45t54.5 133v49h184v-1454h-184v1051h-289z" />
<glyph unicode="2" horiz-adv-x="1222" d="M109 0v152q0 147 66.5 248.5t159.5 164t243 137.5q117 59 183 100.5t110 100t44 133.5q0 121 -73.5 198t-216.5 77q-78 0 -151 -36t-118 -94.5t-47 -123.5h-196q6 131 77.5 228t186.5 149.5t248 52.5q139 0 246.5 -55.5t168 -158t60.5 -237.5t-60.5 -227t-147.5 -149.5 t-226 -127.5q-117 -57 -184.5 -100t-113.5 -104.5t-46 -145.5h792v-182h-1005z" />
<glyph unicode="3" horiz-adv-x="1200" d="M61 395h197q2 -68 45 -126t117 -93t160 -35q150 0 237.5 73t87.5 202q0 102 -62.5 151t-158.5 62.5t-250 13.5h-63v166h63q150 0 242 12.5t150.5 62.5t58.5 152q0 131 -79 203t-226 72q-86 0 -160 -35t-117 -93.5t-45 -125.5h-197q27 199 162 314.5t336 115.5 q141 0 258 -52.5t184.5 -150.5t67.5 -227q0 -125 -80 -206t-184 -122q117 -41 201 -120t84 -214q0 -131 -69 -228t-189.5 -149.5t-272.5 -52.5q-201 0 -336 116t-162 314z" />
<glyph unicode="4" horiz-adv-x="1220" d="M76 352v258l504 844h424v-926h198v-176h-198v-352h-185v352h-743zM260 528h559v750h-141l-418 -692v-58z" />
<glyph unicode="5" horiz-adv-x="1249" d="M82 348h213q41 -86 120 -139t199 -53q160 0 264.5 79.5t104.5 213.5q0 98 -50 164.5t-128 98t-164 31.5q-121 0 -217 -39.5t-139 -107.5h-172l163 858h734v-176h-570l-106 -469q139 111 328 111q131 0 246.5 -51.5t187 -158t71.5 -261.5q0 -168 -77.5 -275.5t-203.5 -157 t-272 -49.5q-188 0 -328.5 98.5t-203.5 282.5z" />
<glyph unicode="6" horiz-adv-x="1275" d="M78 727q0 258 83 428t218 251t295 81q125 0 241.5 -53.5t193.5 -150.5t83 -226h-197q-2 68 -45 126t-116.5 93t-159.5 35q-203 0 -307.5 -161t-104.5 -423q0 -31 6 -65q29 61 90.5 120.5t152.5 98.5t202 39q131 0 246.5 -51.5t187.5 -158t72 -261.5q0 -168 -78 -275.5 t-204 -157t-271 -49.5q-274 0 -431 186.5t-157 573.5zM315 449q0 -72 42 -139.5t121 -110.5t188 -43q159 0 263.5 79.5t104.5 213.5q0 98 -50 164.5t-128 98t-164 31.5q-115 0 -199.5 -43t-131 -111.5t-46.5 -139.5z" />
<glyph unicode="7" horiz-adv-x="1105" d="M68 1278v176h968v-278l-534 -1174h-205l555 1219v57h-784z" />
<glyph unicode="8" horiz-adv-x="1261" d="M92 408q0 121 68.5 202.5t185.5 126.5q-213 80 -213 303q0 215 146.5 314.5t351.5 99.5t351 -99.5t146 -314.5q0 -223 -213 -303q117 -45 185.5 -127t68.5 -202q0 -147 -77.5 -247t-200.5 -147t-260 -47t-260 47t-201 146.5t-78 247.5zM276 408q0 -70 48.5 -127.5 t129.5 -91t177 -33.5t177 33.5t129 91t48 127.5q0 80 -51 137t-132 87t-171 30t-171 -30t-132.5 -87.5t-51.5 -136.5zM317 1040q0 -117 86 -170t228 -53q141 0 227 53.5t86 169.5q0 102 -89 164t-224 62t-224.5 -61.5t-89.5 -164.5z" />
<glyph unicode="9" horiz-adv-x="1282" d="M55 1006q0 154 79 263t206 163.5t268 54.5q178 0 310.5 -85t205 -256t72.5 -419q0 -272 -83 -442t-217 -244t-296 -74q-125 0 -241.5 53.5t-193.5 150.5t-83 226h197q2 -68 45 -123t115.5 -86.5t160.5 -31.5q203 0 307.5 155.5t104.5 415.5q0 33 -6 66 q-29 -61 -90.5 -121t-152.5 -98.5t-202 -38.5q-131 0 -246.5 51t-187.5 157.5t-72 262.5zM240 1006q0 -98 50 -165t128 -98.5t164 -31.5q115 0 199.5 43t130.5 111.5t46 140.5t-42 142.5t-120.5 116.5t-187.5 46q-104 0 -188 -39t-132 -107.5t-48 -158.5z" />
<glyph unicode=":" horiz-adv-x="1085" d="M410 121q0 55 38.5 95t94.5 40q55 0 94 -40t39 -95t-39 -93t-94 -38q-56 0 -94.5 38t-38.5 93zM410 848q0 55 38.5 95t94.5 40q55 0 94 -40t39 -95t-39 -93t-94 -38q-56 0 -94.5 38t-38.5 93z" />
<glyph unicode=";" horiz-adv-x="1085" d="M410 848q0 55 38.5 95t94.5 40q55 0 94 -40t39 -95t-39 -93t-94 -38q-56 0 -94.5 38t-38.5 93zM424 0v233h233v-315l-94 -166h-139l94 185v63h-94z" />
<glyph unicode="&#x3c;" horiz-adv-x="1126" d="M72 492v184l983 373v-201l-729 -264l729 -262v-203z" />
<glyph unicode="=" horiz-adv-x="1126" d="M133 430v184h860v-184h-860zM133 799v184h860v-184h-860z" />
<glyph unicode="&#x3e;" horiz-adv-x="1126" d="M72 119v203l729 262l-729 264v201l983 -373v-184z" />
<glyph unicode="?" horiz-adv-x="1028" d="M72 1057q10 201 130 315.5t318 114.5q129 0 228.5 -52.5t153.5 -148.5t54 -219q0 -100 -27.5 -166.5t-67.5 -103.5t-105 -80q-55 -37 -88 -65.5t-54.5 -74t-21.5 -112.5h-184q0 110 29.5 181t70.5 110t108 84q80 51 118 98t38 137q0 94 -66.5 165t-185.5 71 q-115 0 -187.5 -75t-76.5 -179h-184zM367 121q0 55 38.5 95t94.5 40q55 0 94 -40t39 -95t-39 -93t-94 -38q-56 0 -94.5 38t-38.5 93z" />
<glyph unicode="@" horiz-adv-x="1820" d="M102 -61v1108q0 76 44 144.5t123 111.5t175 43h932q97 0 175.5 -43t122.5 -112t44 -144v-842q0 -104 -81 -154.5t-183 -50.5q-96 0 -174 44t-88 134q-47 -94 -138 -152.5t-198 -58.5q-188 0 -310 114t-122 333v155q0 219 122 333t310 114q106 0 196.5 -58.5t137.5 -150.5 v176h184v-731q0 -76 80 -76t80 76v795q0 51 -50 86.5t-126 35.5h-895q-76 0 -126 -35.5t-50 -86.5v-1108q0 -51 50 -87t126 -36h1057v-176h-1076q-96 0 -175 43t-123 111.5t-44 144.5zM608 446q0 -143 71 -223t216 -80q70 0 137.5 31t112.5 104.5t45 190.5v45 q0 117 -45 190.5t-112.5 104.5t-137.5 31q-145 0 -216 -80t-71 -223v-91z" />
<glyph unicode="A" horiz-adv-x="1398" d="M20 0l510 1454h338l510 -1454h-194l-162 459h-645l-162 -459h-195zM438 635h523l-226 643h-71z" />
<glyph unicode="B" horiz-adv-x="1310" d="M102 0v1454h643q219 0 335 -96t116 -279q0 -88 -49 -168t-131 -118q129 -35 196.5 -132.5t67.5 -228.5q0 -154 -76 -251t-178 -139t-188 -42h-736zM287 176h491q162 0 234.5 75t72.5 191q0 94 -61 168t-231 74h-506v-508zM287 860h448q266 0 266 209t-266 209h-448v-418z " />
<glyph unicode="C" horiz-adv-x="1509" d="M92 657v140q0 221 79 375.5t218 234.5t316 80h167q125 0 240 -55.5t197 -162t112 -253.5h-196q-39 133 -151.5 214t-285.5 81q-272 0 -392 -147.5t-120 -383.5v-106q0 -233 120 -378.5t392 -145.5q186 0 301 90t148 237h190q-25 -162 -105.5 -277.5t-198 -174 t-251.5 -58.5h-167q-176 0 -315.5 80t-218.5 234.5t-79 375.5z" />
<glyph unicode="D" horiz-adv-x="1556" d="M184 0v1454h668q176 -6 315.5 -85t218 -225.5t78.5 -346.5v-140q0 -205 -79.5 -353t-218 -226t-314.5 -78h-668zM369 182h366q291 0 418 139.5t127 352.5v106q0 213 -127 355.5t-418 142.5h-366v-1096z" />
<glyph unicode="E" horiz-adv-x="1310" d="M184 0v1454h1004v-176h-819v-453h774v-176h-774v-473h819v-176h-1004z" />
<glyph unicode="F" horiz-adv-x="1228" d="M184 0v1454h983v-176h-798v-453h753v-176h-753v-649h-185z" />
<glyph unicode="G" horiz-adv-x="1587" d="M92 657v140q0 221 79 375.5t218 234.5t316 80h167q219 0 373 -125t207 -354h-195q-49 143 -160.5 223t-308.5 80q-272 0 -392 -147.5t-120 -383.5v-106q0 -233 120 -378.5t392 -145.5q238 0 355 112.5t141 302.5v4h-483v176h674v-745h-111l-51 152q-80 -90 -192.5 -137.5 t-248.5 -47.5h-167q-176 0 -315.5 80t-218.5 234.5t-79 375.5z" />
<glyph unicode="H" horiz-adv-x="1581" d="M184 0v1454h185v-629h843v629h185v-1454h-185v649h-843v-649h-185z" />
<glyph unicode="I" horiz-adv-x="552" d="M184 0v1454h185v-1454h-185z" />
<glyph unicode="J" horiz-adv-x="1187" d="M41 414v32h184q0 -147 71 -225t236 -78q166 0 237 78t71 225v1008h184v-1040q0 -148 -58.5 -248t-156.5 -149.5t-217 -49.5h-119q-119 0 -217 49.5t-156.5 149.5t-58.5 248z" />
<glyph unicode="K" horiz-adv-x="1380" d="M184 0v1454h185v-594h213l448 594h238l-523 -674l605 -780h-242l-514 676h-225v-676h-185z" />
<glyph unicode="L" horiz-adv-x="1173" d="M184 0v1454h185v-1278h753v-176h-938z" />
<glyph unicode="M" horiz-adv-x="1939" d="M184 0v1454h416l344 -1278h51l344 1278h416v-1454h-184v1278h-92l-344 -1278h-330l-344 1278h-92v-1278h-185z" />
<glyph unicode="N" horiz-adv-x="1576" d="M184 0v1454h359l602 -1278h63v1278h185v-1454h-359l-602 1278h-63v-1278h-185z" />
<glyph unicode="O" horiz-adv-x="1576" d="M92 657v140q0 221 79 375.5t218 234.5t316 80h167q177 0 316 -81t218 -236.5t79 -372.5v-140q0 -221 -79 -375.5t-218 -234.5t-316 -80h-167q-176 0 -315.5 80t-218.5 234.5t-79 375.5zM276 674q0 -233 120 -375.5t392 -142.5t392 142t120 376v106q0 236 -119.5 383.5 t-392.5 147.5q-272 0 -392 -147.5t-120 -383.5v-106z" />
<glyph unicode="P" horiz-adv-x="1376" d="M184 0v1454h668q195 0 329 -111.5t134 -349.5q0 -248 -131 -353t-332 -105h-483v-535h-185zM369 711h444q166 0 236.5 74.5t70.5 207.5t-70.5 208t-236.5 75h-444v-565z" />
<glyph unicode="Q" horiz-adv-x="1665" d="M92 657v140q0 221 79 375.5t218 234.5t316 80h167q178 -6 316.5 -86t217.5 -233.5t79 -370.5v-140q0 -248 -103 -417l191 -174l-125 -138l-186 170q-160 -131 -390 -131h-167q-176 0 -315.5 80t-218.5 234.5t-79 375.5zM276 674q0 -238 120 -378t392 -140q197 0 322 82 l-195 180l125 135l195 -178q65 117 65 294v5v106q0 236 -119.5 383.5t-392.5 147.5q-272 0 -392 -147.5t-120 -383.5v-106z" />
<glyph unicode="R" horiz-adv-x="1443" d="M184 0v1454h668q195 0 329 -111.5t134 -349.5q0 -352 -289 -436l326 -557h-211l-307 535h-465v-535h-185zM369 711h444q166 0 236.5 74.5t70.5 207.5t-70.5 208t-236.5 75h-444v-565z" />
<glyph unicode="S" horiz-adv-x="1386" d="M78 430h205q28 -137 141 -208.5t299 -71.5q190 0 288.5 67.5t98.5 185.5q0 86 -51 136.5t-143.5 79t-266.5 61.5q-164 31 -269.5 69.5t-173 114.5t-67.5 205q0 195 138.5 306.5t384.5 111.5q256 0 394 -118t165 -329h-185q-23 127 -110.5 199t-263.5 72 q-152 0 -245 -63.5t-93 -172.5q0 -72 44 -112.5t115.5 -61t190.5 -41.5q215 -37 338 -76t202.5 -127t79.5 -249q0 -203 -140 -322t-449 -119q-256 0 -426 117t-201 346z" />
<glyph unicode="T" horiz-adv-x="1167" d="M20 1278v176h1127v-176h-471v-1278h-184v1278h-472z" />
<glyph unicode="U" horiz-adv-x="1597" d="M164 657v797h184v-780q0 -174 38 -286t136.5 -172t276.5 -60t276.5 60t136 172t37.5 286v780h185v-797q0 -360 -156 -525t-457 -165h-45q-301 0 -456.5 165t-155.5 525z" />
<glyph unicode="V" horiz-adv-x="1370" d="M20 1454h195l422 -1278h96l422 1278h195l-490 -1454h-350z" />
<glyph unicode="W" horiz-adv-x="1857" d="M31 1454h194l232 -1278h78l208 1278h371l209 -1278h78l231 1278h195l-275 -1454h-385l-209 1278h-59l-209 -1278h-385z" />
<glyph unicode="X" horiz-adv-x="1323" d="M20 0l429 760l-408 694h205l344 -602h143l344 602h205l-408 -694l429 -760h-205l-367 668h-139l-367 -668h-205z" />
<glyph unicode="Y" horiz-adv-x="1282" d="M20 1454h205l310 -696h213l309 696h205l-408 -872h-121v-582h-184v582h-121z" />
<glyph unicode="Z" horiz-adv-x="1378" d="M92 0v334l938 876v68h-928v176h1112v-319l-938 -885v-66h1020v-184h-1204z" />
<glyph unicode="[" horiz-adv-x="698" d="M184 -317v1804h504v-176h-319v-1452h319v-176h-504z" />
<glyph unicode="\" horiz-adv-x="761" d="M0 1454h184l578 -1454h-184z" />
<glyph unicode="]" horiz-adv-x="698" d="M10 -141h320v1452h-320v176h504v-1804h-504v176z" />
<glyph unicode="^" horiz-adv-x="892" d="M51 784l309 670h175l307 -670h-185l-211 473l-210 -473h-185z" />
<glyph unicode="_" horiz-adv-x="1083" d="M31 -121h1022v-155h-1022v155z" />
<glyph unicode="`" horiz-adv-x="575" d="M69 1475h205l231 -308h-184z" />
<glyph unicode="a" horiz-adv-x="1173" d="M102 293v22q0 137 106.5 222.5t285.5 85.5h333q-2 76 -18 122t-62.5 70.5t-134.5 24.5h-123q-76 0 -126 -36t-50 -87h-184q0 76 44 144.5t123 111.5t175 43h201q152 0 246 -96.5t94 -309.5v-358q0 -76 80 -76v-176q-96 0 -159 18.5t-89 87.5q-47 -74 -143.5 -105.5 t-206.5 -31.5q-166 0 -279 76t-113 248zM287 301q0 -86 60.5 -121t205.5 -35q92 0 183 37t91 123v162h-274q-154 0 -210 -50t-56 -116z" />
<glyph unicode="b" horiz-adv-x="1196" d="M164 0v1487h184v-680q47 90 142.5 149.5t191.5 59.5q188 0 310 -114t122 -333v-155q0 -219 -122 -333t-310 -114q-96 0 -191.5 59.5t-142.5 149.5v-176h-184zM348 469q0 -117 45 -190.5t112.5 -104.5t137.5 -31q145 0 216 80t71 223v91q0 143 -71 223t-216 80 q-70 0 -137.5 -31t-112.5 -104.5t-45 -190.5v-45z" />
<glyph unicode="c" horiz-adv-x="1069" d="M82 414v155q0 146 57.5 247.5t153.5 150.5t211 49h119q150 0 256 -89t125 -261h-193q-18 86 -76.5 130t-171.5 44q-160 0 -228.5 -78t-68.5 -225v-91q0 -147 68.5 -225t228.5 -78q123 0 182.5 51.5t71.5 147.5h191q-12 -184 -121 -279.5t-264 -95.5h-119 q-115 0 -211 49.5t-153.5 150.5t-57.5 247z" />
<glyph unicode="d" horiz-adv-x="1196" d="M92 414v155q0 219 122 333t310 114q96 0 191.5 -59.5t142.5 -149.5v680h184v-1487h-184v176q-47 -90 -142 -149.5t-192 -59.5q-188 0 -310 114t-122 333zM276 446q0 -143 71 -223t216 -80q70 0 137.5 31t112.5 104.5t45 190.5v45q0 117 -45 190.5t-112.5 104.5t-137.5 31 q-145 0 -216 -80t-71 -223v-91z" />
<glyph unicode="e" d="M82 414v155q0 145 62.5 247t166 151t224.5 49h77q121 0 224.5 -49t166 -150.5t62.5 -247.5v-112h-805v-11q0 -147 73 -225t240 -78q238 0 291 174h193q-27 -172 -144.5 -261t-279.5 -89h-119q-193 0 -312.5 113t-119.5 334zM264 608h619q-12 115 -83 173.5t-227 58.5 q-155 0 -226 -58.5t-83 -173.5z" />
<glyph unicode="f" horiz-adv-x="811" d="M41 807v176h145v66q0 213 94.5 309t245.5 96h265v-176h-205q-117 0 -166 -65.5t-49 -196.5v-33h297v-176h-297v-807h-185v807h-145z" />
<glyph unicode="g" horiz-adv-x="1185" d="M92 451v118q0 147 58.5 248t157 150t216.5 49q96 0 191.5 -59.5t142.5 -149.5v176h184v-958q0 -221 -113.5 -334t-303.5 -113h-107q-147 0 -259 74t-153 217h207q29 -59 82.5 -87t179.5 -28q121 0 182.5 36t81 99.5t19.5 167.5v129q-41 -84 -137 -135t-197 -51 q-119 0 -217 50t-156.5 151.5t-58.5 249.5zM276 483q0 -147 71 -227t237 -80q102 0 188 69.5t86 237.5v31q0 117 -44 189.5t-107.5 104.5t-122.5 32q-166 0 -237 -78t-71 -225v-54z" />
<glyph unicode="h" horiz-adv-x="1196" d="M164 0v1487h184v-647q55 78 149.5 127t184.5 49q94 0 178 -40t138.5 -131t54.5 -235v-610h-185v578q0 137 -58 199.5t-187 62.5q-59 0 -123 -32t-108 -104.5t-44 -189.5v-514h-184z" />
<glyph unicode="i" horiz-adv-x="487" d="M121 1362q0 51 36 88t87 37t87 -37t36 -88t-36 -86t-87 -35t-87 35t-36 86zM152 0v983h184v-983h-184z" />
<glyph unicode="j" horiz-adv-x="577" d="M-31 -246h62q117 0 166 65.5t49 196.5v967h184v-999q0 -213 -94 -309.5t-246 -96.5h-121v176zM209 1362q0 51 36 88t87 37t87 -37t36 -88t-36 -86t-87 -35t-87 35t-36 86z" />
<glyph unicode="k" horiz-adv-x="1134" d="M164 0v1487h184v-815h109l317 342h254l-399 -410l485 -604h-237l-381 487h-148v-487h-184z" />
<glyph unicode="l" horiz-adv-x="512" d="M164 0v1487h184v-1487h-184z" />
<glyph unicode="m" horiz-adv-x="1777" d="M164 0v983h184v-139q49 78 130 125t167 47q90 0 181.5 -56.5t134.5 -173.5q43 100 134 165t193 65q74 0 154 -41t136 -132t56 -233v-610h-184v578q0 133 -59.5 197.5t-161.5 64.5q-94 0 -166 -77t-72 -249v-514h-184v578q0 133 -59.5 197.5t-161.5 64.5q-94 0 -166 -77 t-72 -249v-514h-184z" />
<glyph unicode="n" horiz-adv-x="1196" d="M164 0v983h172v-162q51 84 150.5 139.5t195.5 55.5q94 0 178 -40t138.5 -131t54.5 -235v-610h-185v578q0 137 -58 199.5t-187 62.5q-59 0 -123 -32t-108 -104.5t-44 -189.5v-514h-184z" />
<glyph unicode="o" d="M82 414v155q0 147 58.5 248t156.5 150t217 49h119q119 0 217 -49t156.5 -149.5t58.5 -248.5v-155q0 -147 -58.5 -247.5t-156.5 -150t-217 -49.5h-119q-119 0 -217 49.5t-156.5 149.5t-58.5 248zM266 446q0 -147 71 -225t236 -78q166 0 237 78t71 225v91q0 147 -71 225 t-237 78t-236.5 -78t-70.5 -225v-91z" />
<glyph unicode="p" horiz-adv-x="1196" d="M164 -389v1372h184v-176q47 90 142.5 149.5t191.5 59.5q188 0 310 -114t122 -333v-155q0 -219 -122 -333t-310 -114q-96 0 -191.5 59.5t-142.5 149.5v-565h-184zM348 469q0 -117 45 -190.5t112.5 -104.5t137.5 -31q145 0 216 80t71 223v91q0 143 -71 223t-216 80 q-70 0 -137.5 -31t-112.5 -104.5t-45 -190.5v-45z" />
<glyph unicode="q" horiz-adv-x="1175" d="M82 414v155q0 219 122 333t310 114q96 0 191.5 -59.5t142.5 -149.5v176h184v-1372h-184v565q-47 -90 -142.5 -149.5t-191.5 -59.5q-188 0 -310 114t-122 333zM266 446q0 -143 71 -223t216 -80q70 0 137.5 31t112.5 104.5t45 190.5v45q0 117 -45 190.5t-112.5 104.5 t-137.5 31q-145 0 -216 -80t-71 -223v-91z" />
<glyph unicode="r" horiz-adv-x="862" d="M164 0v983h184v-182q49 78 143.5 130t190.5 52h139v-176h-198q-57 0 -121 -37t-109 -114.5t-45 -194.5v-461h-184z" />
<glyph unicode="s" horiz-adv-x="1099" d="M72 283h204q33 -139 275 -140q272 0 272 156q0 45 -27.5 69.5t-98 40t-224.5 33.5q-201 25 -280.5 88.5t-79.5 180.5q0 141 112.5 223t313.5 82q162 0 277.5 -74t148.5 -217h-205q-16 57 -72.5 89t-169.5 32q-98 0 -159.5 -34t-61.5 -85q0 -59 53 -84t185 -37 q184 -18 286.5 -56t144.5 -98.5t42 -154.5q0 -154 -115 -242t-344 -88q-211 0 -327 81t-150 235z" />
<glyph unicode="t" horiz-adv-x="739" d="M41 807v176h145v504h185v-504h276v-176h-276v-369q0 -131 49 -196.5t166 -65.5h61v-176h-121q-152 0 -246 96.5t-94 309.5v401h-145z" />
<glyph unicode="u" horiz-adv-x="1196" d="M154 373v610h184v-577q0 -137 58.5 -200t187.5 -63q59 0 122.5 32t107.5 104.5t44 189.5v514h184v-983h-172v162q-51 -84 -150 -139.5t-196 -55.5q-94 0 -178 40t-138 131t-54 235z" />
<glyph unicode="v" horiz-adv-x="1032" d="M20 983h205l256 -799h70l256 799h205l-348 -983h-295z" />
<glyph unicode="w" horiz-adv-x="1683" d="M31 983h205l225 -807h59l158 807h328l157 -807h60l225 807h205l-310 -983h-315l-168 807h-35l-170 -807h-315z" />
<glyph unicode="x" horiz-adv-x="1122" d="M20 0l353 516l-326 467h215l250 -379h98l250 379h215l-325 -467l352 -516h-219l-273 428h-98l-272 -428h-220z" />
<glyph unicode="y" horiz-adv-x="1114" d="M20 983h205l320 -840h49l295 840h205l-369 -999l-20 -60q-49 -139 -80 -205.5t-79 -103.5t-128 -37h-160v176h70q61 0 99 19.5t62 74.5l41 119h-102z" />
<glyph unicode="z" horiz-adv-x="1101" d="M82 0v346l754 393v68h-723v176h907v-330l-754 -401v-68h754v-184h-938z" />
<glyph unicode="{" horiz-adv-x="720" d="M102 530v177h62q70 0 91 53t21 153v209q0 211 91.5 288t248.5 77h95v-176h-35q-90 0 -133 -13.5t-62.5 -59.5t-19.5 -148v-209q0 -99 -39 -161.5t-96 -94.5q57 -39 96 -104.5t39 -164.5v-211q0 -102 19.5 -148t62.5 -59.5t133 -13.5h35v-176h-95q-158 0 -249 77t-91 288 v211q0 100 -21.5 153t-90.5 53h-62z" />
<glyph unicode="|" horiz-adv-x="552" d="M184 -317v1804h185v-1804h-185z" />
<glyph unicode="}" horiz-adv-x="720" d="M10 -76h35q90 0 133 13.5t62.5 59.5t19.5 148v211q0 98 39 164t96 105q-57 33 -96 95t-39 161v209q0 102 -19.5 148t-62.5 59.5t-133 13.5h-35v176h94q158 0 249 -77t91 -288v-209q0 -100 21.5 -153t91.5 -53h61v-177h-61q-70 0 -91.5 -53t-21.5 -153v-211 q0 -211 -91 -288t-249 -77h-94v176z" />
<glyph unicode="~" horiz-adv-x="1126" d="M72 463h184q0 57 36 101t93 44q35 0 63.5 -16.5t67.5 -48.5q49 -45 97.5 -69.5t121.5 -24.5q111 0 182.5 53t104.5 128t33 140h-185q0 -59 -33.5 -101t-82.5 -42q-43 0 -75 17.5t-77 53.5q-53 43 -95 64.5t-104 21.5q-147 0 -239 -90t-92 -231z" />
<glyph unicode="&#xa1;" horiz-adv-x="552" d="M143 983q0 55 39 93t94 38q56 0 95 -38t39 -93t-39 -95t-95 -40q-55 0 -94 40t-39 95zM164 -352l20 934h185l20 -934h-225z" />
<glyph unicode="&#xa2;" horiz-adv-x="1130" d="M102 651v156q0 199 102.5 311.5t260.5 130.5v205h164v-201h14q150 0 256.5 -89t124.5 -261h-193q-16 76 -64 120t-138 52v-692q98 8 147 58.5t62 138.5h190q-12 -184 -120.5 -279.5t-264.5 -95.5h-14v-205h-164v209q-158 18 -260.5 131t-102.5 311zM287 684 q0 -117 42 -189.5t136 -99.5v668q-94 -27 -136 -99.5t-42 -189.5v-90z" />
<glyph unicode="&#xa3;" horiz-adv-x="1163" d="M133 0v184q68 0 123 33t86 80t31 88q0 80 -18.5 139.5t-55.5 130.5h-166v144h105q-25 80 -25 168q0 143 67.5 262t193.5 188.5t294 69.5q121 0 208 -19.5t136 -46.5v-155q-104 45 -260 45q-178 0 -279.5 -61.5t-138.5 -143.5t-37 -156q0 -70 29 -151h586v-144h-523 q27 -63 42.5 -122.5t15.5 -131.5q0 -57 -26.5 -115.5t-80.5 -101.5h672v-184h-979z" />
<glyph unicode="&#xa4;" horiz-adv-x="1189" d="M92 317l139 140q-84 115 -84 256q0 143 89 262l-144 143l101 103l147 -146q109 78 250 78t256 -82l151 150l101 -101l-150 -151q82 -113 82 -254q0 -137 -78 -252l146 -146l-101 -102l-143 145q-115 -88 -264 -88q-143 0 -256 82l-139 -139zM299 719q0 -57 21.5 -111.5 t64.5 -97.5t97.5 -64.5t111.5 -21.5t112.5 21.5t98.5 64.5t65.5 97.5t22.5 111.5q0 106 -68 188l-43 43q-80 68 -188 68q-106 0 -186 -68l-41 -41q-68 -82 -68 -190z" />
<glyph unicode="&#xa5;" horiz-adv-x="1343" d="M51 1454h205l324 -729h184l323 729h205l-340 -729h195v-143h-383v-144h383v-143h-383v-295h-184v295h-381v143h381v144h-381v143h192z" />
<glyph unicode="&#xa6;" horiz-adv-x="552" d="M184 -317v737h185v-737h-185zM184 750v737h185v-737h-185z" />
<glyph unicode="&#xa7;" horiz-adv-x="1284" d="M174 35h205q33 -139 274 -139q272 0 273 155q0 47 -29 79t-104.5 48.5t-217.5 16.5q-109 0 -190.5 42t-125.5 112.5t-44 156.5q0 84 50 157.5t141 116.5q-94 35 -142.5 98.5t-48.5 143.5q0 141 112.5 223t313.5 82q162 0 277.5 -73.5t148.5 -217.5h-205q-41 141 -241 142 q-96 0 -159 -43t-63 -97q0 -61 57.5 -90.5t180.5 -29.5q240 0 356.5 -90.5t116.5 -247.5q0 -82 -50 -148.5t-151 -105.5q111 -33 156 -102.5t45 -174.5q0 -154 -114.5 -242t-344.5 -88q-211 0 -326.5 81t-150.5 235zM399 545q0 -78 70 -133.5t184 -55.5q272 0 273 197 q0 82 -60.5 138.5t-244.5 56.5q-113 0 -167.5 -58.5t-54.5 -144.5z" />
<glyph unicode="&#xa8;" horiz-adv-x="1228" d="M295 1362q0 51 36 88t87 37t87 -37t36 -88t-36 -86t-87 -35t-87 35t-36 86zM651 1362q0 51 36 88t87 37t87 -37t36 -88t-35.5 -86t-87.5 -35q-51 0 -87 35t-36 86z" />
<glyph unicode="&#xa9;" horiz-adv-x="1802" d="M102 725q0 217 107.5 400.5t291 291t400.5 107.5t400.5 -107.5t291 -291t107.5 -400.5t-107.5 -400.5t-291 -291t-400.5 -107.5t-400.5 107.5t-291 291t-107.5 400.5zM246 725q0 -178 88 -328.5t238.5 -238.5t328.5 -88t328.5 88t238.5 237.5t88 329.5q0 178 -88 328.5 t-238.5 238.5t-328.5 88t-328.5 -88t-238.5 -238.5t-88 -328.5zM532 664v120q0 168 94.5 256t231.5 88h92q117 0 199 -68.5t96 -201.5h-149q-14 66 -59.5 100.5t-133.5 34.5q-123 0 -176 -60.5t-53 -174.5v-70q0 -113 53 -173t176 -60q96 0 141.5 38.5t55.5 114.5h147 q-10 -141 -93 -215t-204 -74h-92q-137 0 -231.5 88.5t-94.5 256.5z" />
<glyph unicode="&#xaa;" horiz-adv-x="749" d="M102 680v102h566v-102h-566zM102 1075v12q0 78 60.5 127.5t163.5 49.5h190q-2 63 -26.5 92.5t-96.5 29.5h-69q-43 0 -73 -20t-30 -49h-104q0 68 55 119t139 51h115q86 0 140.5 -54.5t54.5 -177.5v-204q0 -43 47 -43v-101q-55 0 -91 10.5t-51 49.5q-29 -41 -84 -59.5 t-116 -18.5q-94 0 -159 44t-65 142zM207 1079q0 -49 34.5 -68.5t116.5 -19.5q54 0 106 20.5t52 69.5v93h-158q-88 0 -119.5 -29t-31.5 -66z" />
<glyph unicode="&#xab;" horiz-adv-x="1089" d="M61 561l373 422h195l-383 -422l383 -422h-195zM481 561l373 422h195l-383 -422l383 -422h-195z" />
<glyph unicode="&#xac;" horiz-adv-x="1208" d="M113 467v184h983v-571h-185v387h-798z" />
<glyph unicode="&#xad;" horiz-adv-x="901" d="M92 518v176h717v-176h-717z" />
<glyph unicode="&#xae;" horiz-adv-x="983" d="M51 1047q0 121 58.5 221t160 159.5t222.5 59.5q120 0 220.5 -59.5t160 -160t59.5 -220.5q0 -121 -59.5 -221.5t-160 -160t-220.5 -59.5q-121 0 -222.5 59.5t-160 160t-58.5 221.5zM154 1047q0 -92 45 -170t122.5 -123t170.5 -45q92 0 169.5 45t122.5 122.5t45 170.5 q0 92 -45 169.5t-122.5 122.5t-169.5 45t-170 -45t-123 -122.5t-45 -169.5zM322 842v418h223q53 0 91 -34t38 -98q0 -97 -76 -122l96 -164h-98l-84 155h-102v-155h-88zM410 1073h108q37 0 54.5 11.5t17.5 43.5q0 55 -72 56h-108v-111z" />
<glyph unicode="&#xaf;" horiz-adv-x="1228" d="M457 1276v143h600v-143h-600z" />
<glyph unicode="&#xb0;" horiz-adv-x="716" d="M51 1098q0 84 41 154.5t111.5 111.5t154.5 41t155 -41t112 -111.5t41 -154.5t-41 -155t-112 -111.5t-155 -40.5t-154.5 40.5t-111.5 111.5t-41 155zM164 1098q0 -82 57.5 -138.5t138.5 -56.5q80 0 136.5 56.5t56.5 138.5t-56.5 138t-136.5 56q-82 0 -139 -56t-57 -138z " />
<glyph unicode="&#xb1;" horiz-adv-x="1208" d="M113 84v184h983v-184h-983zM113 672v184h399v283h184v-283h400v-184h-400v-285h-184v285h-399z" />
<glyph unicode="&#xb2;" horiz-adv-x="792" d="M109 635v86q0 84 37.5 142.5t91 94t139.5 78.5q98 49 145 89t47 102q0 70 -42 113.5t-124 43.5q-68 0 -123 -44t-57 -101h-112q6 111 91 178.5t201 67.5q123 0 198 -71t75 -187q0 -78 -35 -131.5t-83 -85t-130 -72.5q-98 -47 -147.5 -88t-49.5 -111h453v-104h-575z" />
<glyph unicode="&#xb3;" horiz-adv-x="757" d="M61 862h113q2 -57 55.5 -101t128.5 -44q86 0 136.5 42t50.5 115q0 63 -42 91t-98.5 33.5t-166.5 5.5v96q109 0 163 5t92.5 32.5t38.5 91.5q0 74 -45 115.5t-129 41.5q-76 0 -129 -43t-55 -102h-113q14 115 92 180.5t193 65.5q123 0 207 -67.5t84 -178.5q0 -70 -45 -116 t-105 -72q66 -23 114 -69t48 -122q0 -111 -86 -178.5t-217 -67.5q-115 0 -192.5 66t-92.5 180z" />
<glyph unicode="&#xb4;" horiz-adv-x="579" d="M72 1180l232 307h204l-252 -307h-184z" />
<glyph unicode="&#xb5;" horiz-adv-x="1196" d="M154 -389v1372h184v-577q0 -137 58.5 -200t187.5 -63q59 0 122.5 32t107.5 104.5t44 189.5v514h184v-983h-172v162q-51 -84 -150 -139.5t-196 -55.5q-104 0 -186 45v-401h-184z" />
<glyph unicode="&#xb6;" horiz-adv-x="1177" d="M72 1049q0 109 51 201.5t137 148t189 55.5h309v-1454h-185v639h-124q-102 0 -188.5 55.5t-137.5 149.5t-51 205zM942 0v1454h184v-1454h-184z" />
<glyph unicode="&#xb7;" horiz-adv-x="552" d="M143 516q0 55 39 95t94 40t94.5 -40t39.5 -95t-39 -93t-95 -38q-55 0 -94 38t-39 93z" />
<glyph unicode="&#xb8;" horiz-adv-x="522" d="M65 -348q33 -6 84 -6q70 0 118 17.5t48 60.5q0 37 -40 56t-97 19q-45 0 -82 -12v70l88 166h135l-55 -107q80 -16 133 -66.5t53 -125.5q0 -109 -78.5 -154t-193.5 -45q-57 0 -113 10v117z" />
<glyph unicode="&#xb9;" horiz-adv-x="638" d="M184 1223v100h54q51 0 81.5 25.5t30.5 76.5v29h105v-831h-105v600h-166z" />
<glyph unicode="&#xba;" horiz-adv-x="978" d="M92 1010v80q0 188 97.5 291.5t252.5 103.5h95q155 0 252.5 -104.5t97.5 -290.5v-80q0 -188 -97.5 -291t-252.5 -103h-95q-156 0 -253 102.5t-97 291.5zM197 1020q0 -133 68.5 -215t223.5 -82q156 0 224.5 82t68.5 215v61q0 136 -68.5 219.5t-224.5 83.5t-224 -83.5 t-68 -219.5v-61z" />
<glyph unicode="&#xbb;" horiz-adv-x="1089" d="M41 139l383 422l-383 422h195l372 -422l-372 -422h-195zM461 139l383 422l-383 422h194l373 -422l-373 -422h-194z" />
<glyph unicode="&#xbc;" horiz-adv-x="1814" d="M184 1223v100h54q51 0 81.5 25.5t30.5 76.5v29h105v-831h-105v600h-166zM276 0l947 1454h125l-947 -1454h-125zM987 201v147l289 483h242v-530h112v-100h-112v-201h-105v201h-426zM1094 301h319v430h-82l-237 -393v-37z" />
<glyph unicode="&#xbd;" horiz-adv-x="1806" d="M184 1223v100h54q51 0 81.5 25.5t30.5 76.5v29h105v-831h-105v600h-166zM276 0l947 1454h125l-947 -1454h-125zM1047 0v86q0 84 37.5 142.5t91 94t139.5 78.5q98 49 145 89t47 102q0 70 -42 114t-124 44q-68 0 -123 -44t-57 -102h-112q6 111 91 178.5t201 67.5 q123 0 198 -70.5t75 -187.5q0 -78 -35 -131t-83 -85t-130 -73q-98 -47 -147.5 -88t-49.5 -111h453v-104h-575z" />
<glyph unicode="&#xbe;" horiz-adv-x="1951" d="M184 850h113q2 -57 55.5 -101t128.5 -44q86 0 136.5 41.5t50.5 115.5q0 63 -42 91t-98.5 33t-167.5 5v96q109 0 163.5 5.5t93 33t38.5 91.5q0 74 -45 115.5t-129 41.5q-76 0 -129 -43t-55 -102h-113q14 115 92 180.5t193 65.5q123 0 207 -68t84 -178q0 -70 -45 -116 t-105 -73q66 -23 114 -68.5t48 -121.5q0 -111 -86 -178.5t-217 -67.5q-115 0 -192.5 65.5t-92.5 180.5zM459 0l946 1454h125l-946 -1454h-125zM1124 201v147l289 483h242v-530h112v-100h-112v-201h-105v201h-426zM1231 301h319v430h-82l-237 -393v-37z" />
<glyph unicode="&#xbf;" horiz-adv-x="1028" d="M41 37q0 100 27.5 166.5t67.5 103.5t106 80q55 37 87.5 65.5t54.5 73.5t22 113h184q0 -111 -30 -181.5t-70.5 -109.5t-108.5 -84q-80 -51 -118 -98t-38 -137q0 -94 66.5 -165t185.5 -71q115 0 187.5 75t76.5 179h185q-10 -201 -130 -315.5t-319 -114.5q-129 0 -228 52 t-153.5 148.5t-54.5 219.5zM365 983q0 55 38.5 93t94.5 38q55 0 94 -38t39 -93t-39 -95t-94 -40t-94 40t-39 95z" />
<glyph unicode="&#xc0;" horiz-adv-x="1398" d="M20 0l510 1454h338l510 -1454h-194l-162 459h-645l-162 -459h-195zM352 1905h205l231 -308h-184zM438 635h523l-226 643h-71z" />
<glyph unicode="&#xc1;" horiz-adv-x="1398" d="M20 0l510 1454h338l510 -1454h-194l-162 459h-645l-162 -459h-195zM438 635h523l-226 643h-71zM612 1598l232 307h204l-252 -307h-184z" />
<glyph unicode="&#xc2;" horiz-adv-x="1398" d="M20 0l510 1454h338l510 -1454h-194l-162 459h-645l-162 -459h-195zM381 1598l232 307h174l231 -307h-184l-133 186l-135 -186h-185zM438 635h523l-226 643h-71z" />
<glyph unicode="&#xc3;" horiz-adv-x="1398" d="M20 0l510 1454h338l510 -1454h-194l-162 459h-645l-162 -459h-195zM376 1598h144q0 49 18.5 84t54.5 35q23 0 38.5 -11.5t33.5 -33.5q29 -35 59.5 -54.5t86.5 -19.5q117 0 165 79t48 175h-144q0 -119 -67 -119q-27 0 -43.5 11.5t-36.5 35.5q-31 35 -60.5 53.5t-87.5 18.5 q-51 0 -100 -32t-79 -90t-30 -132zM438 635h523l-226 643h-71z" />
<glyph unicode="&#xc4;" horiz-adv-x="1398" d="M20 0l510 1454h338l510 -1454h-194l-162 459h-645l-162 -459h-195zM399 1718q0 51 36 88t87 37t87 -37t36 -88t-36 -86t-87 -35t-87 35t-36 86zM438 635h523l-226 643h-71zM755 1718q0 51 36 88t87 37t87 -37t36 -88t-35.5 -86t-87.5 -35q-51 0 -87 35t-36 86z" />
<glyph unicode="&#xc5;" horiz-adv-x="1398" d="M20 0l510 1454h338l510 -1454h-194l-162 459h-645l-162 -459h-195zM438 635h523l-226 643h-71zM479 1815q0 90 62.5 153.5t152.5 63.5t154.5 -63.5t64.5 -153.5q0 -92 -63.5 -155t-155.5 -63q-90 0 -152.5 62.5t-62.5 155.5zM588 1815q0 -45 30.5 -77t75.5 -32t78 31.5 t33 77.5q0 45 -32 76.5t-79 31.5q-45 0 -75.5 -31.5t-30.5 -76.5z" />
<glyph unicode="&#xc6;" horiz-adv-x="2023" d="M20 0l592 1454h1370v-176h-819v-453h774v-176h-774v-473h819v-176h-1003v459h-578l-186 -459h-195zM473 635h506v643h-244z" />
<glyph unicode="&#xc7;" horiz-adv-x="1509" d="M92 657v140q0 221 79 375.5t218 234.5t316 80h167q125 0 240 -55.5t197 -162t112 -253.5h-196q-39 133 -151.5 214t-285.5 81q-272 0 -392 -147.5t-120 -383.5v-106q0 -233 120 -378.5t392 -145.5q186 0 301 90t148 237h190q-25 -162 -105.5 -277.5t-198 -174 t-251.5 -58.5h-18l-27 -51q80 -16 133.5 -66.5t53.5 -125.5q0 -109 -79 -154t-194 -45q-57 0 -112 10v117q33 -6 84 -6q70 0 118 17.5t48 60.5q0 37 -40 56t-98 19q-45 0 -82 -12v70l60 110h-14q-176 0 -315.5 80t-218.5 234.5t-79 375.5z" />
<glyph unicode="&#xc8;" horiz-adv-x="1310" d="M184 0v1454h1004v-176h-819v-453h774v-176h-774v-473h819v-176h-1004zM356 1905h205l231 -308h-184z" />
<glyph unicode="&#xc9;" horiz-adv-x="1310" d="M184 0v1454h1004v-176h-819v-453h774v-176h-774v-473h819v-176h-1004zM586 1598l232 307h204l-252 -307h-184z" />
<glyph unicode="&#xca;" horiz-adv-x="1310" d="M184 0v1454h1004v-176h-819v-453h774v-176h-774v-473h819v-176h-1004zM364 1598l232 307h174l231 -307h-184l-133 186l-135 -186h-185z" />
<glyph unicode="&#xcb;" horiz-adv-x="1310" d="M184 0v1454h1004v-176h-819v-453h774v-176h-774v-473h819v-176h-1004zM377 1718q0 51 36 88t87 37t87 -37t36 -88t-36 -86t-87 -35t-87 35t-36 86zM733 1718q0 51 36 88t87 37t87 -37t36 -88t-35.5 -86t-87.5 -35q-51 0 -87 35t-36 86z" />
<glyph unicode="&#xcc;" horiz-adv-x="870" d="M246 1905h205l231 -308h-184zM501 0v1454h185v-1454h-185z" />
<glyph unicode="&#xcd;" horiz-adv-x="804" d="M243 0v1454h185v-1454h-185zM248 1598l232 307h204l-252 -307h-184z" />
<glyph unicode="&#xce;" horiz-adv-x="1005" d="M237 1598l232 307h174l231 -307h-184l-133 186l-135 -186h-185zM473 0v1454h185v-1454h-185z" />
<glyph unicode="&#xcf;" horiz-adv-x="970" d="M248 1718q0 51 36 88t87 37t87 -37t36 -88t-36 -86t-87 -35t-87 35t-36 86zM456 0v1454h185v-1454h-185zM604 1718q0 51 36 88t87 37t87 -37t36 -88t-35.5 -86t-87.5 -35q-51 0 -87 35t-36 86z" />
<glyph unicode="&#xd0;" horiz-adv-x="1798" d="M174 639v176h252v639h668q176 -6 315 -85t218 -225.5t79 -346.5v-140q0 -205 -80 -353t-218 -226t-314 -78h-668v639h-252zM610 182h367q291 0 418 139.5t127 352.5v106q0 213 -127 355.5t-418 142.5h-367v-463h281v-176h-281v-457z" />
<glyph unicode="&#xd1;" horiz-adv-x="1576" d="M184 0v1454h359l602 -1278h63v1278h185v-1454h-359l-602 1278h-63v-1278h-185zM491 1598h144q0 49 18.5 84t54.5 35q23 0 38.5 -11.5t33.5 -33.5q29 -35 59.5 -54.5t86.5 -19.5q117 0 165 79t48 175h-144q0 -119 -67 -119q-27 0 -43.5 11.5t-36.5 35.5q-31 35 -60.5 53.5 t-87.5 18.5q-51 0 -100 -32t-79 -90t-30 -132z" />
<glyph unicode="&#xd2;" horiz-adv-x="1576" d="M92 657v140q0 221 79 375.5t218 234.5t316 80h167q177 0 316 -81t218 -236.5t79 -372.5v-140q0 -221 -79 -375.5t-218 -234.5t-316 -80h-167q-176 0 -315.5 80t-218.5 234.5t-79 375.5zM276 674q0 -233 120 -375.5t392 -142.5t392 142t120 376v106q0 236 -119.5 383.5 t-392.5 147.5q-272 0 -392 -147.5t-120 -383.5v-106zM452 1905h205l231 -308h-184z" />
<glyph unicode="&#xd3;" horiz-adv-x="1576" d="M92 657v140q0 221 79 375.5t218 234.5t316 80h167q177 0 316 -81t218 -236.5t79 -372.5v-140q0 -221 -79 -375.5t-218 -234.5t-316 -80h-167q-176 0 -315.5 80t-218.5 234.5t-79 375.5zM276 674q0 -233 120 -375.5t392 -142.5t392 142t120 376v106q0 236 -119.5 383.5 t-392.5 147.5q-272 0 -392 -147.5t-120 -383.5v-106zM698 1598l232 307h204l-252 -307h-184z" />
<glyph unicode="&#xd4;" horiz-adv-x="1576" d="M92 657v140q0 221 79 375.5t218 234.5t316 80h167q177 0 316 -81t218 -236.5t79 -372.5v-140q0 -221 -79 -375.5t-218 -234.5t-316 -80h-167q-176 0 -315.5 80t-218.5 234.5t-79 375.5zM276 674q0 -233 120 -375.5t392 -142.5t392 142t120 376v106q0 236 -119.5 383.5 t-392.5 147.5q-272 0 -392 -147.5t-120 -383.5v-106zM471 1598l232 307h174l231 -307h-184l-133 186l-135 -186h-185z" />
<glyph unicode="&#xd5;" horiz-adv-x="1576" d="M92 657v140q0 221 79 375.5t218 234.5t316 80h167q177 0 316 -81t218 -236.5t79 -372.5v-140q0 -221 -79 -375.5t-218 -234.5t-316 -80h-167q-176 0 -315.5 80t-218.5 234.5t-79 375.5zM276 674q0 -233 120 -375.5t392 -142.5t392 142t120 376v106q0 236 -119.5 383.5 t-392.5 147.5q-272 0 -392 -147.5t-120 -383.5v-106zM465 1598h144q0 49 18.5 84t54.5 35q23 0 38.5 -11.5t33.5 -33.5q29 -35 59.5 -54.5t86.5 -19.5q117 0 165 79t48 175h-144q0 -119 -67 -119q-27 0 -43.5 11.5t-36.5 35.5q-31 35 -60.5 53.5t-87.5 18.5q-51 0 -100 -32 t-79 -90t-30 -132z" />
<glyph unicode="&#xd6;" horiz-adv-x="1576" d="M92 657v140q0 221 79 375.5t218 234.5t316 80h167q177 0 316 -81t218 -236.5t79 -372.5v-140q0 -221 -79 -375.5t-218 -234.5t-316 -80h-167q-176 0 -315.5 80t-218.5 234.5t-79 375.5zM276 674q0 -233 120 -375.5t392 -142.5t392 142t120 376v106q0 236 -119.5 383.5 t-392.5 147.5q-272 0 -392 -147.5t-120 -383.5v-106zM487 1718q0 51 36 88t87 37t87 -37t36 -88t-36 -86t-87 -35t-87 35t-36 86zM843 1718q0 51 36 88t87 37t87 -37t36 -88t-35.5 -86t-87.5 -35q-51 0 -87 35t-36 86z" />
<glyph unicode="&#xd7;" horiz-adv-x="1099" d="M113 1010l129 131l309 -299l307 299l129 -131l-305 -295l303 -293l-127 -131l-307 297l-309 -297l-127 131l303 293z" />
<glyph unicode="&#xd8;" horiz-adv-x="1576" d="M92 657v140q0 221 79 375.5t218 234.5t316 80h167q176 0 314 -80l90 117l145 -115l-94 -121q76 -88 117 -212t41 -279v-140q0 -221 -79 -375.5t-218 -234.5t-316 -80h-167q-195 0 -338 92l-91 -114l-145 114l100 127q-139 182 -139 471zM276 674q0 -201 82 -326l707 905 q-111 57 -277 58q-272 0 -392 -147.5t-120 -383.5v-106zM494 221q119 -66 294 -65q272 0 392 142t120 376v106q0 219 -96 353z" />
<glyph unicode="&#xd9;" horiz-adv-x="1597" d="M164 657v797h184v-780q0 -174 38 -286t136.5 -172t276.5 -60t276.5 60t136 172t37.5 286v780h185v-797q0 -360 -156 -525t-457 -165h-45q-301 0 -456.5 165t-155.5 525zM477 1905h205l231 -308h-184z" />
<glyph unicode="&#xda;" horiz-adv-x="1597" d="M164 657v797h184v-780q0 -174 38 -286t136.5 -172t276.5 -60t276.5 60t136 172t37.5 286v780h185v-797q0 -360 -156 -525t-457 -165h-45q-301 0 -456.5 165t-155.5 525zM700 1598l232 307h204l-252 -307h-184z" />
<glyph unicode="&#xdb;" horiz-adv-x="1597" d="M164 657v797h184v-780q0 -174 38 -286t136.5 -172t276.5 -60t276.5 60t136 172t37.5 286v780h185v-797q0 -360 -156 -525t-457 -165h-45q-301 0 -456.5 165t-155.5 525zM481 1598l232 307h174l231 -307h-184l-133 186l-135 -186h-185z" />
<glyph unicode="&#xdc;" horiz-adv-x="1597" d="M164 657v797h184v-780q0 -174 38 -286t136.5 -172t276.5 -60t276.5 60t136 172t37.5 286v780h185v-797q0 -360 -156 -525t-457 -165h-45q-301 0 -456.5 165t-155.5 525zM498 1718q0 51 36 88t87 37t87 -37t36 -88t-36 -86t-87 -35t-87 35t-36 86zM854 1718q0 51 36 88 t87 37t87 -37t36 -88t-35.5 -86t-87.5 -35q-51 0 -87 35t-36 86z" />
<glyph unicode="&#xdd;" horiz-adv-x="1282" d="M20 1454h205l310 -696h213l309 696h205l-408 -872h-121v-582h-184v582h-121zM545 1598l232 307h204l-252 -307h-184z" />
<glyph unicode="&#xde;" horiz-adv-x="1099" d="M184 0v1454h185v-328l229 -2q121 0 225.5 -43t170 -132t65.5 -222q0 -207 -133 -302t-328 -95h-229v-330h-185zM369 506h213q157 0 219.5 63.5t62.5 157.5t-62.5 157.5t-219.5 63.5h-213v-442z" />
<glyph unicode="&#xdf;" horiz-adv-x="1144" d="M164 0v1079q0 117 58.5 202t151.5 129t197 44q207 0 323 -97t116 -278q0 -84 -46 -163.5t-116 -122.5q115 -33 180.5 -132.5t65.5 -228.5q0 -152 -74 -249t-168 -140t-160 -43h-155v176h96q135 0 200.5 76t65.5 190q0 92 -54 167t-198 75h-110v176h53q129 0 177 61.5 t48 147.5q0 106 -63.5 167.5t-180.5 61.5q-111 0 -162 -71.5t-51 -157.5v-1069h-194z" />
<glyph unicode="&#xe0;" horiz-adv-x="1173" d="M102 293v22q0 137 106.5 222.5t285.5 85.5h333q-2 76 -18 122t-62.5 70.5t-134.5 24.5h-123q-76 0 -126 -36t-50 -87h-184q0 76 44 144.5t123 111.5t175 43h201q152 0 246 -96.5t94 -309.5v-358q0 -76 80 -76v-176q-96 0 -159 18.5t-89 87.5q-47 -74 -143.5 -105.5 t-206.5 -31.5q-166 0 -279 76t-113 248zM254 1475h205l231 -308h-184zM287 301q0 -86 60.5 -121t205.5 -35q92 0 183 37t91 123v162h-274q-154 0 -210 -50t-56 -116z" />
<glyph unicode="&#xe1;" horiz-adv-x="1173" d="M102 293v22q0 137 106.5 222.5t285.5 85.5h333q-2 76 -18 122t-62.5 70.5t-134.5 24.5h-123q-76 0 -126 -36t-50 -87h-184q0 76 44 144.5t123 111.5t175 43h201q152 0 246 -96.5t94 -309.5v-358q0 -76 80 -76v-176q-96 0 -159 18.5t-89 87.5q-47 -74 -143.5 -105.5 t-206.5 -31.5q-166 0 -279 76t-113 248zM287 301q0 -86 60.5 -121t205.5 -35q92 0 183 37t91 123v162h-274q-154 0 -210 -50t-56 -116zM477 1168l232 307h204l-252 -307h-184z" />
<glyph unicode="&#xe2;" horiz-adv-x="1173" d="M102 293v22q0 137 106.5 222.5t285.5 85.5h333q-2 76 -18 122t-62.5 70.5t-134.5 24.5h-123q-76 0 -126 -36t-50 -87h-184q0 76 44 144.5t123 111.5t175 43h201q152 0 246 -96.5t94 -309.5v-358q0 -76 80 -76v-176q-96 0 -159 18.5t-89 87.5q-47 -74 -143.5 -105.5 t-206.5 -31.5q-166 0 -279 76t-113 248zM249 1168l232 307h174l231 -307h-184l-133 186l-135 -186h-185zM287 301q0 -86 60.5 -121t205.5 -35q92 0 183 37t91 123v162h-274q-154 0 -210 -50t-56 -116z" />
<glyph unicode="&#xe3;" horiz-adv-x="1173" d="M102 293v22q0 137 106.5 222.5t285.5 85.5h333q-2 76 -18 122t-62.5 70.5t-134.5 24.5h-123q-76 0 -126 -36t-50 -87h-184q0 76 44 144.5t123 111.5t175 43h201q152 0 246 -96.5t94 -309.5v-358q0 -76 80 -76v-176q-96 0 -159 18.5t-89 87.5q-47 -74 -143.5 -105.5 t-206.5 -31.5q-166 0 -279 76t-113 248zM245 1167h144q0 49 18.5 84t54.5 35q23 0 38.5 -11.5t33.5 -33.5q29 -35 59.5 -54.5t86.5 -19.5q117 0 165 79t48 175h-144q0 -119 -67 -119q-27 0 -43.5 11.5t-36.5 35.5q-31 35 -60.5 53.5t-87.5 18.5q-51 0 -100 -32t-79 -90 t-30 -132zM287 301q0 -86 60.5 -121t205.5 -35q92 0 183 37t91 123v162h-274q-154 0 -210 -50t-56 -116z" />
<glyph unicode="&#xe4;" horiz-adv-x="1173" d="M102 293v22q0 137 106.5 222.5t285.5 85.5h333q-2 76 -18 122t-62.5 70.5t-134.5 24.5h-123q-76 0 -126 -36t-50 -87h-184q0 76 44 144.5t123 111.5t175 43h201q152 0 246 -96.5t94 -309.5v-358q0 -76 80 -76v-176q-96 0 -159 18.5t-89 87.5q-47 -74 -143.5 -105.5 t-206.5 -31.5q-166 0 -279 76t-113 248zM285 1288q0 51 36 88t87 37t87 -37t36 -88t-36 -86t-87 -35t-87 35t-36 86zM287 301q0 -86 60.5 -121t205.5 -35q92 0 183 37t91 123v162h-274q-154 0 -210 -50t-56 -116zM641 1288q0 51 36 88t87 37t87 -37t36 -88t-35.5 -86 t-87.5 -35q-51 0 -87 35t-36 86z" />
<glyph unicode="&#xe5;" horiz-adv-x="1173" d="M102 293v22q0 137 106.5 222.5t285.5 85.5h333q-2 76 -18 122t-62.5 70.5t-134.5 24.5h-123q-76 0 -126 -36t-50 -87h-184q0 76 44 144.5t123 111.5t175 43h201q152 0 246 -96.5t94 -309.5v-358q0 -76 80 -76v-176q-96 0 -159 18.5t-89 87.5q-47 -74 -143.5 -105.5 t-206.5 -31.5q-166 0 -279 76t-113 248zM287 301q0 -86 60.5 -121t205.5 -35q92 0 183 37t91 123v162h-274q-154 0 -210 -50t-56 -116zM364 1385q0 90 64.5 153.5t154.5 63.5t152.5 -63.5t62.5 -153.5q0 -92 -62.5 -154.5t-152.5 -62.5q-92 0 -155.5 62.5t-63.5 154.5z M473 1385q0 -45 32.5 -77t77.5 -32t76 32t31 77t-31 76.5t-76 31.5q-47 0 -78.5 -31.5t-31.5 -76.5z" />
<glyph unicode="&#xe6;" horiz-adv-x="1898" d="M102 293v22q0 135 105.5 214t286.5 79h333q-2 82 -17 130t-61.5 75t-136.5 27h-123q-76 0 -126 -36t-50 -87h-184q0 76 44 144.5t123 111.5t175 43h201q92 0 165.5 -36t116.5 -112q63 74 155.5 111t197.5 37h77q121 0 224.5 -49t166 -150.5t62.5 -247.5v-112h-805v-11 q0 -147 73 -225t241 -78q238 0 290 174h193q-27 -172 -144.5 -261t-279.5 -89h-119q-119 0 -213 44t-149 132q-53 -88 -167 -131t-263 -43q-166 0 -279 76t-113 248zM287 301q0 -86 60.5 -121t205.5 -35q92 0 183 37t91 123v152h-274q-154 0 -210 -46t-56 -110zM1036 608 h619q-12 115 -83 173.5t-226 58.5q-156 0 -226.5 -58.5t-83.5 -173.5z" />
<glyph unicode="&#xe7;" horiz-adv-x="1048" d="M82 414v155q0 145 57.5 247t153.5 151t211 49h119q150 0 256 -89t125 -261h-193q-18 86 -76.5 130t-171.5 44q-160 0 -228.5 -78t-68.5 -225v-91q0 -147 68.5 -225t228.5 -78q123 0 182.5 51.5t71.5 147.5h191q-13 -182 -118.5 -277.5t-260.5 -97.5l-27 -51 q80 -16 133 -66.5t53 -125.5q0 -109 -78.5 -154t-193.5 -45q-57 0 -113 10v117q33 -6 84 -6q70 0 118 17.5t48 60.5q0 37 -40 56t-97 19q-45 0 -82 -12v70l60 110q-113 2 -206 52.5t-149.5 149.5t-56.5 245z" />
<glyph unicode="&#xe8;" d="M82 414v155q0 145 62.5 247t166 151t224.5 49h77q121 0 224.5 -49t166 -150.5t62.5 -247.5v-112h-805v-11q0 -147 73 -225t240 -78q238 0 291 174h193q-27 -172 -144.5 -261t-279.5 -89h-119q-193 0 -312.5 113t-119.5 334zM242 1475h205l231 -308h-184zM264 608h619 q-12 115 -83 173.5t-227 58.5q-155 0 -226 -58.5t-83 -173.5z" />
<glyph unicode="&#xe9;" d="M82 414v155q0 145 62.5 247t166 151t224.5 49h77q121 0 224.5 -49t166 -150.5t62.5 -247.5v-112h-805v-11q0 -147 73 -225t240 -78q238 0 291 174h193q-27 -172 -144.5 -261t-279.5 -89h-119q-193 0 -312.5 113t-119.5 334zM264 608h619q-12 115 -83 173.5t-227 58.5 q-155 0 -226 -58.5t-83 -173.5zM485 1168l232 307h204l-252 -307h-184z" />
<glyph unicode="&#xea;" d="M82 414v155q0 145 62.5 247t166 151t224.5 49h77q121 0 224.5 -49t166 -150.5t62.5 -247.5v-112h-805v-11q0 -147 73 -225t240 -78q238 0 291 174h193q-27 -172 -144.5 -261t-279.5 -89h-119q-193 0 -312.5 113t-119.5 334zM256 1168l232 307h174l231 -307h-184l-133 186 l-135 -186h-185zM264 608h619q-12 115 -83 173.5t-227 58.5q-155 0 -226 -58.5t-83 -173.5z" />
<glyph unicode="&#xeb;" d="M82 414v155q0 145 62.5 247t166 151t224.5 49h77q121 0 224.5 -49t166 -150.5t62.5 -247.5v-112h-805v-11q0 -147 73 -225t240 -78q238 0 291 174h193q-27 -172 -144.5 -261t-279.5 -89h-119q-193 0 -312.5 113t-119.5 334zM264 608h619q-12 115 -83 173.5t-227 58.5 q-155 0 -226 -58.5t-83 -173.5zM264 1288q0 51 36 88t87 37t87 -37t36 -88t-36 -86t-87 -35t-87 35t-36 86zM620 1288q0 51 36 88t87 37t87 -37t36 -88t-35.5 -86t-87.5 -35q-51 0 -87 35t-36 86z" />
<glyph unicode="&#xec;" horiz-adv-x="546" d="M-53 1475h205l231 -308h-184zM198 0v983h185v-983h-185z" />
<glyph unicode="&#xed;" horiz-adv-x="530" d="M164 0v983h185v-983h-185zM164 1168l232 307h204l-252 -307h-184z" />
<glyph unicode="&#xee;" horiz-adv-x="878" d="M108 1168l232 307h174l231 -307h-184l-133 186l-135 -186h-185zM342 0v983h185v-983h-185z" />
<glyph unicode="&#xef;" horiz-adv-x="612" d="M6 1288q0 51 36 88t87 37t87 -37t36 -88t-36 -86t-87 -35t-87 35t-36 86zM215 0v983h185v-983h-185zM362 1288q0 51 36 88t87 37t87 -37t36 -88t-35.5 -86t-87.5 -35q-51 0 -87 35t-36 86z" />
<glyph unicode="&#xf0;" horiz-adv-x="1345" d="M184 514q0 246 121 374t340 128q88 0 174 -42t129 -118q-12 119 -73.5 210t-157.5 151l-357 -177v158l191 94q-102 31 -191 31v164q82 0 185.5 -20.5t204.5 -75.5l241 118v-157l-110 -56q264 -237 264 -731q0 -213 -70.5 -347t-181.5 -192.5t-238 -58.5 q-125 0 -233.5 63.5t-173 187.5t-64.5 296zM369 514q0 -100 40 -182t106.5 -129t139.5 -47q306 0 306 358q0 150 -80 238t-226 88q-150 0 -218 -96.5t-68 -229.5z" />
<glyph unicode="&#xf1;" horiz-adv-x="1196" d="M164 0v983h172v-162q51 84 150.5 139.5t195.5 55.5q94 0 178 -40t138.5 -131t54.5 -235v-610h-185v578q0 137 -58 199.5t-187 62.5q-59 0 -123 -32t-108 -104.5t-44 -189.5v-514h-184zM313 1167h144q0 49 18.5 84t54.5 35q23 0 38.5 -11.5t33.5 -33.5q29 -35 59.5 -54.5 t86.5 -19.5q117 0 165 79t48 175h-144q0 -119 -67 -119q-27 0 -43.5 11.5t-36.5 35.5q-31 35 -60.5 53.5t-87.5 18.5q-51 0 -100 -32t-79 -90t-30 -132z" />
<glyph unicode="&#xf2;" d="M82 414v155q0 147 58.5 248t156.5 150t217 49h119q119 0 217 -49t156.5 -149.5t58.5 -248.5v-155q0 -147 -58.5 -247.5t-156.5 -150t-217 -49.5h-119q-119 0 -217 49.5t-156.5 149.5t-58.5 248zM235 1475h205l231 -308h-184zM266 446q0 -147 71 -225t236 -78 q166 0 237 78t71 225v91q0 147 -71 225t-237 78t-236.5 -78t-70.5 -225v-91z" />
<glyph unicode="&#xf3;" d="M82 414v155q0 147 58.5 248t156.5 150t217 49h119q119 0 217 -49t156.5 -149.5t58.5 -248.5v-155q0 -147 -58.5 -247.5t-156.5 -150t-217 -49.5h-119q-119 0 -217 49.5t-156.5 149.5t-58.5 248zM266 446q0 -147 71 -225t236 -78q166 0 237 78t71 225v91q0 147 -71 225 t-237 78t-236.5 -78t-70.5 -225v-91zM489 1168l232 307h204l-252 -307h-184z" />
<glyph unicode="&#xf4;" d="M82 414v155q0 147 58.5 248t156.5 150t217 49h119q119 0 217 -49t156.5 -149.5t58.5 -248.5v-155q0 -147 -58.5 -247.5t-156.5 -150t-217 -49.5h-119q-119 0 -217 49.5t-156.5 149.5t-58.5 248zM256 1168l232 307h174l231 -307h-184l-133 186l-135 -186h-185zM266 446 q0 -147 71 -225t236 -78q166 0 237 78t71 225v91q0 147 -71 225t-237 78t-236.5 -78t-70.5 -225v-91z" />
<glyph unicode="&#xf5;" d="M82 414v155q0 147 58.5 248t156.5 150t217 49h119q119 0 217 -49t156.5 -149.5t58.5 -248.5v-155q0 -147 -58.5 -247.5t-156.5 -150t-217 -49.5h-119q-119 0 -217 49.5t-156.5 149.5t-58.5 248zM250 1167h144q0 49 18.5 84t54.5 35q23 0 38.5 -11.5t33.5 -33.5 q29 -35 59.5 -54.5t86.5 -19.5q117 0 165 79t48 175h-144q0 -119 -67 -119q-27 0 -43.5 11.5t-36.5 35.5q-31 35 -60.5 53.5t-87.5 18.5q-51 0 -100 -32t-79 -90t-30 -132zM266 446q0 -147 71 -225t236 -78q166 0 237 78t71 225v91q0 147 -71 225t-237 78t-236.5 -78 t-70.5 -225v-91z" />
<glyph unicode="&#xf6;" d="M82 414v155q0 147 58.5 248t156.5 150t217 49h119q119 0 217 -49t156.5 -149.5t58.5 -248.5v-155q0 -147 -58.5 -247.5t-156.5 -150t-217 -49.5h-119q-119 0 -217 49.5t-156.5 149.5t-58.5 248zM266 446q0 -147 71 -225t236 -78q166 0 237 78t71 225v91q0 147 -71 225 t-237 78t-236.5 -78t-70.5 -225v-91zM272 1288q0 51 36 88t87 37t87 -37t36 -88t-36 -86t-87 -35t-87 35t-36 86zM628 1288q0 51 36 88t87 37t87 -37t36 -88t-35.5 -86t-87.5 -35q-51 0 -87 35t-36 86z" />
<glyph unicode="&#xf7;" horiz-adv-x="1208" d="M113 614v185h983v-185h-983zM471 313q0 55 39 95.5t94 40.5t94 -40t39 -96q0 -55 -39 -93t-94 -38t-94 38t-39 93zM471 1096q0 55 39 95t94 40t94 -40t39 -95t-39 -93t-94 -38t-94 37.5t-39 93.5z" />
<glyph unicode="&#xf8;" d="M82 414v155q0 147 58.5 248t156.5 150t217 49h119q109 0 194 -39l95 137l118 -82l-94 -135q119 -119 119 -328v-155q0 -147 -58.5 -247.5t-156.5 -150t-217 -49.5h-119q-100 0 -190 37l-113 -164l-117 82l111 160q-123 119 -123 332zM266 446q0 -130 51 -202l400 575 q-55 20 -144 21q-166 0 -236.5 -78t-70.5 -225v-91zM434 162q59 -18 139 -19q166 0 237 78t71 225v91q0 127 -47 196z" />
<glyph unicode="&#xf9;" horiz-adv-x="1196" d="M154 373v610h184v-577q0 -137 58.5 -200t187.5 -63q59 0 122.5 32t107.5 104.5t44 189.5v514h184v-983h-172v162q-51 -84 -150 -139.5t-196 -55.5q-94 0 -178 40t-138 131t-54 235zM256 1475h205l231 -308h-184z" />
<glyph unicode="&#xfa;" horiz-adv-x="1196" d="M154 373v610h184v-577q0 -137 58.5 -200t187.5 -63q59 0 122.5 32t107.5 104.5t44 189.5v514h184v-983h-172v162q-51 -84 -150 -139.5t-196 -55.5q-94 0 -178 40t-138 131t-54 235zM487 1168l232 307h204l-252 -307h-184z" />
<glyph unicode="&#xfb;" horiz-adv-x="1196" d="M154 373v610h184v-577q0 -137 58.5 -200t187.5 -63q59 0 122.5 32t107.5 104.5t44 189.5v514h184v-983h-172v162q-51 -84 -150 -139.5t-196 -55.5q-94 0 -178 40t-138 131t-54 235zM280 1168l232 307h174l231 -307h-184l-133 186l-135 -186h-185z" />
<glyph unicode="&#xfc;" horiz-adv-x="1196" d="M154 373v610h184v-577q0 -137 58.5 -200t187.5 -63q59 0 122.5 32t107.5 104.5t44 189.5v514h184v-983h-172v162q-51 -84 -150 -139.5t-196 -55.5q-94 0 -178 40t-138 131t-54 235zM297 1288q0 51 36 88t87 37t87 -37t36 -88t-36 -86t-87 -35t-87 35t-36 86zM653 1288 q0 51 36 88t87 37t87 -37t36 -88t-35.5 -86t-87.5 -35q-51 0 -87 35t-36 86z" />
<glyph unicode="&#xfd;" horiz-adv-x="1114" d="M20 983h205l320 -840h49l295 840h205l-369 -999l-20 -60q-49 -139 -80 -205.5t-79 -103.5t-128 -37h-160v176h70q61 0 99 19.5t62 74.5l41 119h-102zM465 1168l232 307h204l-252 -307h-184z" />
<glyph unicode="&#xfe;" horiz-adv-x="1257" d="M225 -389v1843h185v-647q47 90 142 149.5t191 59.5q189 0 311 -114t122 -333v-155q0 -219 -122 -333t-311 -114q-96 0 -191 59.5t-142 149.5v-565h-185zM410 469q0 -117 45 -190.5t112.5 -104.5t137.5 -31q145 0 215.5 80t70.5 223v91q0 143 -70.5 223t-215.5 80 q-70 0 -137.5 -31t-112.5 -104.5t-45 -190.5v-45z" />
<glyph unicode="&#xff;" horiz-adv-x="1114" d="M20 983h205l320 -840h49l295 840h205l-369 -999l-20 -60q-49 -139 -80 -205.5t-79 -103.5t-128 -37h-160v176h70q61 0 99 19.5t62 74.5l41 119h-102zM256 1288q0 51 36 88t87 37t87 -37t36 -88t-36 -86t-87 -35t-87 35t-36 86zM612 1288q0 51 36 88t87 37t87 -37t36 -88 t-35.5 -86t-87.5 -35q-51 0 -87 35t-36 86z" />
<glyph unicode="&#x152;" horiz-adv-x="2519" d="M92 657v140q0 221 79 375.5t218 234.5t316 80h167q170 0 305.5 -75t215.5 -218v260h1003v-176h-819v-453h774v-176h-774v-473h819v-176h-1003v258q-78 -143 -213.5 -217t-307.5 -74h-167q-176 0 -315.5 80t-218.5 234.5t-79 375.5zM276 674q0 -233 120 -375.5t392 -142.5 t392 142t120 376v106q0 236 -119.5 383.5t-392.5 147.5q-272 0 -392 -147.5t-120 -383.5v-106z" />
<glyph unicode="&#x153;" horiz-adv-x="1951" d="M82 414v155q0 147 58.5 248t156.5 150t217 49h119q106 0 196.5 -40t149.5 -118q63 78 157.5 118t202.5 40h78q121 0 224.5 -49t166 -150.5t62.5 -247.5v-112h-805v-11q0 -147 72.5 -225t240.5 -78q238 0 291 174h193q-27 -172 -145 -261t-279 -89h-119q-109 0 -198 38 t-146 112q-59 -74 -148.5 -112t-193.5 -38h-119q-119 0 -217 49.5t-156.5 149.5t-58.5 248zM266 446q0 -147 71 -225t236 -78q166 0 237 78t71 225v91q0 147 -71 225t-237 78t-236.5 -78t-70.5 -225v-91zM1069 608h619q-12 115 -83 173.5t-227 58.5q-155 0 -226 -58.5 t-83 -173.5z" />
<glyph unicode="&#x178;" horiz-adv-x="1282" d="M20 1454h205l310 -696h213l309 696h205l-408 -872h-121v-582h-184v582h-121zM340 1718q0 51 36 88t87 37t87 -37t36 -88t-36 -86t-87 -35t-87 35t-36 86zM696 1718q0 51 36 88t87 37t87 -37t36 -88t-35.5 -86t-87.5 -35q-51 0 -87 35t-36 86z" />
<glyph unicode="&#x2c6;" horiz-adv-x="780" d="M71 1180l232 307h174l231 -307h-184l-133 186l-135 -186h-185z" />
<glyph unicode="&#x2dc;" horiz-adv-x="774" d="M63 1233h144q0 49 18.5 84t54.5 35q23 0 38.5 -11.5t33.5 -33.5q29 -35 59.5 -54.5t86.5 -19.5q117 0 165 79t48 175h-144q0 -119 -67 -119q-27 0 -43.5 11.5t-36.5 35.5q-31 35 -60.5 53.5t-87.5 18.5q-51 0 -100 -32t-79 -90t-30 -132z" />
<glyph unicode="&#x2000;" horiz-adv-x="1016" />
<glyph unicode="&#x2001;" horiz-adv-x="2032" />
<glyph unicode="&#x2002;" horiz-adv-x="1016" />
<glyph unicode="&#x2003;" horiz-adv-x="2032" />
<glyph unicode="&#x2004;" horiz-adv-x="677" />
<glyph unicode="&#x2005;" horiz-adv-x="508" />
<glyph unicode="&#x2006;" horiz-adv-x="338" />
<glyph unicode="&#x2007;" horiz-adv-x="338" />
<glyph unicode="&#x2008;" horiz-adv-x="254" />
<glyph unicode="&#x2009;" horiz-adv-x="406" />
<glyph unicode="&#x200a;" horiz-adv-x="112" />
<glyph unicode="&#x2010;" horiz-adv-x="901" d="M92 518v176h717v-176h-717z" />
<glyph unicode="&#x2011;" horiz-adv-x="901" d="M92 518v176h717v-176h-717z" />
<glyph unicode="&#x2012;" horiz-adv-x="901" d="M92 518v176h717v-176h-717z" />
<glyph unicode="&#x2013;" horiz-adv-x="1349" d="M113 518v176h1124v-176h-1124z" />
<glyph unicode="&#x2014;" horiz-adv-x="1837" d="M133 518v176h1571v-176h-1571z" />
<glyph unicode="&#x2018;" horiz-adv-x="397" d="M82 973v315l94 166h139l-94 -184v-64h94v-233h-233z" />
<glyph unicode="&#x2019;" horiz-adv-x="397" d="M82 973l94 184v64h-94v233h233v-315l-94 -166h-139z" />
<glyph unicode="&#x201a;" horiz-adv-x="397" d="M82 0v233h234v-315l-94 -166h-140l95 185v63h-95z" />
<glyph unicode="&#x201c;" horiz-adv-x="751" d="M82 973v315l94 166h139l-94 -184v-64h94v-233h-233zM436 973v315l94 166h140l-95 -184v-64h95v-233h-234z" />
<glyph unicode="&#x201d;" horiz-adv-x="751" d="M82 973l94 184v64h-94v233h233v-315l-94 -166h-139zM436 973l94 184v64h-94v233h234v-315l-95 -166h-139z" />
<glyph unicode="&#x201e;" horiz-adv-x="751" d="M82 0v233h233v-315l-94 -166h-139l94 185v63h-94zM436 0v233h234v-315l-95 -166h-139l94 185v63h-94z" />
<glyph unicode="&#x2022;" horiz-adv-x="911" d="M143 580q0 84 42 155.5t115 113.5t157 42t155.5 -42t113.5 -113.5t42 -155.5q0 -86 -42 -158t-113.5 -114t-155.5 -42t-157 42t-115 114t-42 158z" />
<glyph unicode="&#x2026;" horiz-adv-x="1576" d="M184 121q0 55 39 95t94 40t94.5 -40t39.5 -95t-39 -93t-95 -38q-55 0 -94 38t-39 93zM655 121q0 55 39 95t94 40t94.5 -40t39.5 -95t-39 -93t-95 -38q-55 0 -94 38t-39 93zM1126 121q0 55 39 95t94 40t94.5 -40t39.5 -95t-39 -93t-95 -38q-55 0 -94 38t-39 93z" />
<glyph unicode="&#x202f;" horiz-adv-x="406" />
<glyph unicode="&#x2039;" horiz-adv-x="669" d="M61 561l373 422h195l-383 -422l383 -422h-195z" />
<glyph unicode="&#x203a;" horiz-adv-x="669" d="M41 139l383 422l-383 422h195l372 -422l-372 -422h-195z" />
<glyph unicode="&#x205f;" horiz-adv-x="508" />
<glyph unicode="&#x20ac;" horiz-adv-x="1314" d="M102 512v143h195v2v140h-195v143h205q37 262 200 404.5t402 142.5q100 0 178 -18.5t125 -45.5v-155q-98 43 -219 43q-221 0 -341 -100.5t-156 -270.5h555v-143h-570v-17v-106v-19h570v-143h-553q35 -168 154.5 -265t340.5 -97q125 0 219 40v-165q-41 -25 -119.5 -41.5 t-183.5 -16.5q-238 0 -401.5 141.5t-200.5 403.5h-205z" />
<glyph unicode="&#x2122;" horiz-adv-x="1757" d="M61 1331v123h590v-123h-233v-639h-123v639h-234zM754 692v762h254l172 -639h28l172 639h254v-762h-123v639h-41l-172 -639h-208l-172 637h-41v-637h-123z" />
<glyph unicode="&#x25fc;" horiz-adv-x="983" d="M0 0v983h983v-983h-983z" />
</font>
</defs>
</svg>
