<svg width="76" height="39" viewBox="0 0 76 39" fill="none" xmlns="http://www.w3.org/2000/svg">
<path d="M5.65712 33.5013L5.18945 33.1552L38.3446 0L75.453 0V0.697262H38.5282L5.65712 33.5013Z" fill="#222A34"/>
<path d="M5.65712 33.5013L5.18945 33.1552L38.3446 0L75.453 0V0.697262H38.5282L5.65712 33.5013Z" fill="url(#paint0_linear_2005_937)" fill-opacity="0.1"/>
<g filter="url(#filter0_b_2005_937)">
<circle cx="5.6572" cy="33.5019" r="4.88571" fill="#1F78FF" fill-opacity="0.1"/>
<circle cx="5.6572" cy="33.5019" r="4.88571" fill="url(#paint1_radial_2005_937)"/>
<circle cx="5.6572" cy="33.5019" r="4.53673" stroke="url(#paint2_linear_2005_937)" stroke-width="0.697959"/>
</g>
<path d="M5.65764 34.8973C6.42858 34.8973 7.05356 34.2723 7.05356 33.5014C7.05356 32.7304 6.42858 32.1055 5.65764 32.1055C4.88669 32.1055 4.26172 32.7304 4.26172 33.5014C4.26172 34.2723 4.88669 34.8973 5.65764 34.8973Z" fill="url(#paint3_linear_2005_937)"/>
<defs>
<filter id="filter0_b_2005_937" x="-6.20811" y="21.6366" width="23.7307" height="23.7307" filterUnits="userSpaceOnUse" color-interpolation-filters="sRGB">
<feFlood flood-opacity="0" result="BackgroundImageFix"/>
<feGaussianBlur in="BackgroundImageFix" stdDeviation="3.4898"/>
<feComposite in2="SourceAlpha" operator="in" result="effect1_backgroundBlur_2005_937"/>
<feBlend mode="normal" in="SourceGraphic" in2="effect1_backgroundBlur_2005_937" result="shape"/>
</filter>
<linearGradient id="paint0_linear_2005_937" x1="67.8906" y1="33.4685" x2="67.8906" y2="0" gradientUnits="userSpaceOnUse">
<stop stop-color="#D8ECF8"/>
<stop offset="1" stop-color="#98C0EF"/>
</linearGradient>
<radialGradient id="paint1_radial_2005_937" cx="0" cy="0" r="1" gradientUnits="userSpaceOnUse" gradientTransform="translate(5.66804 37.5379) scale(22.7142 21.1858)">
<stop stop-color="#1F78FF"/>
<stop offset="0.2524" stop-color="#295180" stop-opacity="0"/>
</radialGradient>
<linearGradient id="paint2_linear_2005_937" x1="5.6572" y1="38.3876" x2="5.6572" y2="28.6162" gradientUnits="userSpaceOnUse">
<stop stop-color="#D8ECF8"/>
<stop offset="1" stop-color="#98C0EF"/>
</linearGradient>
<linearGradient id="paint3_linear_2005_937" x1="5.65764" y1="34.8973" x2="5.65764" y2="32.1055" gradientUnits="userSpaceOnUse">
<stop stop-color="#D8ECF8"/>
<stop offset="1" stop-color="#98C0EF"/>
</linearGradient>
</defs>
</svg>
