<svg width="248" height="31" viewBox="0 0 248 31" fill="none" xmlns="http://www.w3.org/2000/svg">
<rect x="0.812744" y="0.758789" width="2.48124" height="29.7749" rx="1.24062" fill="#D9D9D9"/>
<rect x="6.39575" y="0.758789" width="2.48124" height="29.7749" rx="1.24062" fill="#D9D9D9"/>
<rect x="239.633" y="0.758789" width="2.48124" height="29.7749" rx="1.24062" fill="#D9D9D9"/>
<rect x="245.215" y="0.758789" width="2.48124" height="29.7749" rx="1.24062" fill="#D9D9D9"/>
<rect x="11.9783" y="0.758789" width="2.48124" height="29.7749" rx="1.24062" fill="#D9D9D9"/>
<rect x="168.297" y="0.758789" width="2.48124" height="29.7749" rx="1.24062" fill="#D9D9D9"/>
<rect x="173.879" y="0.758789" width="2.48124" height="29.7749" rx="1.24062" fill="#D9D9D9"/>
<rect x="179.462" y="0.758789" width="2.48124" height="29.7749" rx="1.24062" fill="#D9D9D9"/>
<rect x="185.045" y="8.20312" width="2.48124" height="22.3312" rx="1.24062" fill="#D9D9D9"/>
<rect x="190.628" y="8.20312" width="2.48124" height="22.3312" rx="1.24062" fill="#D9D9D9"/>
<rect x="196.211" y="8.20312" width="2.48124" height="22.3312" rx="1.24062" fill="#D9D9D9"/>
<rect x="17.561" y="15.0264" width="2.48124" height="15.5078" rx="1.24062" fill="#D9D9D9"/>
<rect x="23.144" y="0.758789" width="2.48124" height="29.7749" rx="1.24062" fill="#D9D9D9"/>
<rect x="28.7268" y="0.758789" width="2.48124" height="29.7749" rx="1.24062" fill="#D9D9D9"/>
<rect x="34.3096" y="0.758789" width="2.48124" height="29.7749" rx="1.24062" fill="#D9D9D9"/>
<rect x="39.8923" y="15.0264" width="2.48124" height="15.5078" rx="1.24062" fill="#D9D9D9"/>
<rect x="45.4751" y="15.0264" width="2.48124" height="15.5078" rx="1.24062" fill="#D9D9D9"/>
<rect x="51.0579" y="19.9893" width="2.48124" height="10.5453" rx="1.24062" fill="#D9D9D9"/>
<rect x="56.6409" y="8.20312" width="2.48124" height="22.3312" rx="1.24062" fill="#D9D9D9"/>
<rect x="62.2234" y="0.758789" width="2.48124" height="29.7749" rx="1.24062" fill="#D9D9D9"/>
<rect x="67.8064" y="15.0264" width="2.48124" height="15.5078" rx="1.24062" fill="#D9D9D9"/>
<rect x="73.3892" y="15.0264" width="2.48124" height="15.5078" rx="1.24062" fill="#D9D9D9"/>
<rect x="78.9719" y="19.9893" width="2.48124" height="10.5453" rx="1.24062" fill="#D9D9D9"/>
<rect x="84.5547" y="15.0264" width="2.48124" height="15.5078" rx="1.24062" fill="#D9D9D9"/>
<rect x="90.1375" y="8.20312" width="2.48124" height="22.3312" rx="1.24062" fill="#D9D9D9"/>
<rect x="95.7202" y="0.758789" width="2.48124" height="29.7749" rx="1.24062" fill="#D9D9D9"/>
<rect x="101.303" y="15.0264" width="2.48124" height="15.5078" rx="1.24062" fill="#D9D9D9"/>
<rect x="106.886" y="0.758789" width="2.48124" height="29.7749" rx="1.24062" fill="#D9D9D9"/>
<rect x="112.469" y="0.758789" width="2.48124" height="29.7749" rx="1.24062" fill="#D9D9D9"/>
<rect x="118.052" y="0.758789" width="2.48124" height="29.7749" rx="1.24062" fill="#D9D9D9"/>
<rect x="123.634" y="15.0264" width="2.48124" height="15.5078" rx="1.24062" fill="#D9D9D9"/>
<rect x="129.217" y="15.0264" width="2.48124" height="15.5078" rx="1.24062" fill="#D9D9D9"/>
<rect x="134.8" y="19.9893" width="2.48124" height="10.5453" rx="1.24062" fill="#D9D9D9"/>
<rect x="140.383" y="8.20312" width="2.48124" height="22.3312" rx="1.24062" fill="#D9D9D9"/>
<rect x="145.966" y="0.758789" width="2.48124" height="29.7749" rx="1.24062" fill="#D9D9D9"/>
<rect x="151.548" y="15.0264" width="2.48124" height="15.5078" rx="1.24062" fill="#D9D9D9"/>
<rect x="157.131" y="15.0264" width="2.48124" height="15.5078" rx="1.24062" fill="#D9D9D9"/>
<rect x="201.173" y="15.0264" width="2.48124" height="15.5078" rx="1.24062" fill="#D9D9D9"/>
<rect x="206.756" y="21.8496" width="2.48124" height="8.68435" rx="1.24062" fill="#D9D9D9"/>
<rect x="212.339" y="21.8496" width="2.48124" height="8.68435" rx="1.24062" fill="#D9D9D9"/>
<rect x="217.922" y="8.20312" width="2.48124" height="22.3312" rx="1.24062" fill="#D9D9D9"/>
<rect x="223.504" y="8.20312" width="2.48124" height="22.3312" rx="1.24062" fill="#D9D9D9"/>
<rect x="228.467" y="15.0264" width="2.48124" height="15.5078" rx="1.24062" fill="#D9D9D9"/>
<rect x="234.05" y="21.8496" width="2.48124" height="8.68435" rx="1.24062" fill="#D9D9D9"/>
<rect x="162.714" y="19.9893" width="2.48124" height="10.5453" rx="1.24062" fill="#D9D9D9"/>
</svg>
