<svg width="248" height="31" viewBox="0 0 248 31" fill="none" xmlns="http://www.w3.org/2000/svg">
<rect x="0.746582" y="0.40332" width="2.48124" height="29.7749" rx="1.24062" fill="#1F78FF"/>
<rect x="6.32935" y="0.40332" width="2.48124" height="29.7749" rx="1.24062" fill="#1F78FF"/>
<rect x="239.566" y="0.40332" width="2.48124" height="29.7749" rx="1.24062" fill="#1F78FF"/>
<rect x="245.149" y="0.40332" width="2.48124" height="29.7749" rx="1.24062" fill="#1F78FF"/>
<rect x="11.9121" y="0.40332" width="2.48124" height="29.7749" rx="1.24062" fill="#1F78FF"/>
<rect x="168.23" y="0.40332" width="2.48124" height="29.7749" rx="1.24062" fill="#1F78FF"/>
<rect x="173.813" y="0.40332" width="2.48124" height="29.7749" rx="1.24062" fill="#1F78FF"/>
<rect x="179.396" y="0.40332" width="2.48124" height="29.7749" rx="1.24062" fill="#1F78FF"/>
<rect x="184.979" y="7.84668" width="2.48124" height="22.3312" rx="1.24062" fill="#1F78FF"/>
<rect x="190.562" y="7.84668" width="2.48124" height="22.3312" rx="1.24062" fill="#1F78FF"/>
<rect x="196.144" y="7.84668" width="2.48124" height="22.3312" rx="1.24062" fill="#1F78FF"/>
<rect x="17.4949" y="14.6709" width="2.48124" height="15.5078" rx="1.24062" fill="#1F78FF"/>
<rect x="23.0776" y="0.40332" width="2.48124" height="29.7749" rx="1.24062" fill="#1F78FF"/>
<rect x="28.6606" y="0.40332" width="2.48124" height="29.7749" rx="1.24062" fill="#1F78FF"/>
<rect x="34.2432" y="0.40332" width="2.48124" height="29.7749" rx="1.24062" fill="#1F78FF"/>
<rect x="39.8262" y="14.6709" width="2.48124" height="15.5078" rx="1.24062" fill="#1F78FF"/>
<rect x="45.4089" y="14.6709" width="2.48124" height="15.5078" rx="1.24062" fill="#1F78FF"/>
<rect x="50.9917" y="19.6338" width="2.48124" height="10.5453" rx="1.24062" fill="#1F78FF"/>
<rect x="56.5747" y="7.84668" width="2.48124" height="22.3312" rx="1.24062" fill="#1F78FF"/>
<rect x="62.1572" y="0.40332" width="2.48124" height="29.7749" rx="1.24062" fill="#1F78FF"/>
<rect x="67.74" y="14.6709" width="2.48124" height="15.5078" rx="1.24062" fill="#1F78FF"/>
<rect x="73.323" y="14.6709" width="2.48124" height="15.5078" rx="1.24062" fill="#1F78FF"/>
<rect x="78.9058" y="19.6338" width="2.48124" height="10.5453" rx="1.24062" fill="#1F78FF"/>
<rect x="84.4885" y="14.6709" width="2.48124" height="15.5078" rx="1.24062" fill="#1F78FF"/>
<rect x="90.0713" y="7.84668" width="2.48124" height="22.3312" rx="1.24062" fill="#1F78FF"/>
<rect x="95.6541" y="0.40332" width="2.48124" height="29.7749" rx="1.24062" fill="#1F78FF"/>
<rect x="101.237" y="14.6709" width="2.48124" height="15.5078" rx="1.24062" fill="#1F78FF"/>
<rect x="106.82" y="0.40332" width="2.48124" height="29.7749" rx="1.24062" fill="#1F78FF"/>
<rect x="112.402" y="0.40332" width="2.48124" height="29.7749" rx="1.24062" fill="#1F78FF"/>
<rect x="117.985" y="0.40332" width="2.48124" height="29.7749" rx="1.24062" fill="#1F78FF"/>
<rect x="123.568" y="14.6709" width="2.48124" height="15.5078" rx="1.24062" fill="#1F78FF"/>
<rect x="129.151" y="14.6709" width="2.48124" height="15.5078" rx="1.24062" fill="#1F78FF"/>
<rect x="134.733" y="19.6338" width="2.48124" height="10.5453" rx="1.24062" fill="#1F78FF"/>
<rect x="140.316" y="7.84668" width="2.48124" height="22.3312" rx="1.24062" fill="#1F78FF"/>
<rect x="145.899" y="0.40332" width="2.48124" height="29.7749" rx="1.24062" fill="#1F78FF"/>
<rect x="151.482" y="14.6709" width="2.48124" height="15.5078" rx="1.24062" fill="#1F78FF"/>
<rect x="157.065" y="14.6709" width="2.48124" height="15.5078" rx="1.24062" fill="#1F78FF"/>
<rect x="201.107" y="14.6709" width="2.48124" height="15.5078" rx="1.24062" fill="#1F78FF"/>
<rect x="206.689" y="21.4941" width="2.48124" height="8.68435" rx="1.24062" fill="#1F78FF"/>
<rect x="212.272" y="21.4941" width="2.48124" height="8.68435" rx="1.24062" fill="#1F78FF"/>
<rect x="217.855" y="7.84668" width="2.48124" height="22.3312" rx="1.24062" fill="#1F78FF"/>
<rect x="223.438" y="7.84668" width="2.48124" height="22.3312" rx="1.24062" fill="#1F78FF"/>
<rect x="228.401" y="14.6709" width="2.48124" height="15.5078" rx="1.24062" fill="#1F78FF"/>
<rect x="233.983" y="21.4941" width="2.48124" height="8.68435" rx="1.24062" fill="#1F78FF"/>
<rect x="162.647" y="19.6338" width="2.48124" height="10.5453" rx="1.24062" fill="#1F78FF"/>
</svg>
