<svg width="348" height="341" viewBox="0 0 348 341" fill="none" xmlns="http://www.w3.org/2000/svg">
<path d="M174.055 340.041C135.071 339.953 97.2994 326.482 67.0589 301.88C36.8184 277.278 15.9432 243.037 7.92547 204.887L0.959473 197.921V143.058L7.8829 136.138C15.7792 97.9001 36.621 63.555 66.8932 38.8954C97.1654 14.2358 135.016 0.770508 174.061 0.770508C213.106 0.770508 250.956 14.2358 281.228 38.8954C311.5 63.555 332.342 97.9001 340.238 136.138L347.158 143.058V197.917L340.192 204.883C332.175 243.036 311.299 277.278 281.057 301.881C250.815 326.485 213.041 339.956 174.055 340.041ZM2.40685 197.315L9.25868 204.169L9.30319 204.382C17.1318 242.291 37.7946 276.341 67.8069 300.789C97.8191 325.237 135.344 338.586 174.054 338.586C212.763 338.586 250.289 325.237 280.301 300.789C310.313 276.341 330.976 242.291 338.805 204.382L338.849 204.169L345.701 197.315V143.66L338.899 136.854L338.855 136.639C331.067 98.682 310.416 64.5764 280.389 40.085C250.363 15.5936 212.803 2.21789 174.055 2.21789C135.307 2.21789 97.7466 15.5936 67.7202 40.085C37.6939 64.5764 17.0423 98.682 9.25481 136.639L9.21031 136.854L2.40685 143.66V197.315Z" fill="#222A34"/>
<path d="M174.054 329.246C142.637 329.246 111.926 319.93 85.8035 302.475C59.6814 285.021 39.3217 260.213 27.299 231.188C15.2763 202.162 12.1307 170.224 18.2598 139.41C24.3889 108.597 39.5175 80.2937 61.7325 58.0787C83.9475 35.8637 112.251 20.7351 143.064 14.606C173.877 8.47686 205.816 11.6225 234.841 23.6452C263.867 35.6679 288.675 56.0276 306.129 82.1497C323.583 108.272 332.9 138.983 332.9 170.4C332.852 212.514 316.101 252.889 286.322 282.668C256.543 312.447 216.168 329.198 174.054 329.246ZM174.054 13.005C142.924 13.005 112.493 22.2361 86.6098 39.5308C60.7263 56.8256 40.5526 81.4073 28.6398 110.167C16.727 138.928 13.61 170.574 19.6831 201.106C25.7563 231.638 40.7466 259.683 62.7587 281.695C84.7707 303.707 112.816 318.697 143.347 324.77C173.879 330.843 205.526 327.726 234.286 315.814C263.046 303.901 287.628 283.727 304.923 257.844C322.217 231.96 331.448 201.53 331.448 170.4C331.399 128.672 314.8 88.6677 285.294 59.1626C255.787 29.6576 215.781 13.0613 174.054 13.0147V13.005Z" fill="url(#paint0_linear_452_22447)"/>
<defs>
<linearGradient id="paint0_linear_452_22447" x1="174.054" y1="329.246" x2="174.054" y2="11.5537" gradientUnits="userSpaceOnUse">
<stop stop-color="#D8ECF8"/>
<stop offset="1" stop-color="#98C0EF"/>
</linearGradient>
</defs>
</svg>
